<svg width="247" height="188" viewBox="0 0 247 188" fill="none" xmlns="http://www.w3.org/2000/svg">
<path fill-rule="evenodd" clip-rule="evenodd" d="M50.9689 0.370138C45.8432 1.69601 44.414 4.09181 44.9987 10.3775C45.2052 12.5992 45.571 15.0749 45.8114 15.8785C46.1771 17.1037 45.9991 17.3427 44.7109 17.3557C43.865 17.3642 41.4919 18.0625 39.4377 18.907C36.0531 20.2985 35.7023 20.3375 35.7023 19.3182C35.7023 17.3947 33.142 10.6413 31.4354 8.06228C29.378 4.95321 26.2305 3.38047 23.2038 3.94824C18.7031 4.79275 14.1159 11.4741 15.1651 15.6563C15.8537 18.3977 21.1607 21.2034 28.7485 22.8359L30.5655 23.2263L28.5568 25.2343C26.0505 27.7412 23.7073 32.3152 21.3296 39.3441C19.252 45.4862 16.4832 58.35 15.8238 64.9215L15.3847 69.3039L18.4328 70.6518C20.1089 71.3937 23.1869 72.3174 25.2729 72.7053L29.0655 73.4108L26.0499 75.8027C13.3201 85.8997 3.89835 102.184 0.926229 119.224C-0.347072 126.526 -0.300297 140.904 1.02173 148.601C2.69781 158.355 11.0587 180.096 11.0587 180.096C11.0587 180.096 11.1017 180.126 11.1433 180.109C11.2863 180.053 11.4123 179.459 9.71265 175.288C7.50646 169.875 4.47133 159.698 2.90439 152.461C1.30432 145.073 0.910637 128.204 2.1599 120.603C4.92803 103.763 13.4942 88.3689 25.8472 78.036L30.6091 74.0532L33.9677 74.6483C39.467 75.6234 50.3939 79.5113 57.1782 82.9075C75.4767 92.0678 91.467 106.635 102.866 124.527C106.948 130.936 112.561 142.555 112.124 143.693C111.61 145.032 104.944 150.143 99.0425 153.723C93.5095 157.079 88.148 159.504 82.7033 161.11L79.3563 162.097L72.6338 150.786C68.9361 144.564 65.669 139.473 65.3734 139.471C64.5796 139.467 70.8674 151.142 75.0245 157.39C78.5826 162.737 78.6196 162.841 77.6315 164.751C75.6989 168.488 76.6642 170.038 79.8877 168.371L81.8841 167.339L86.2406 171.35C95.2323 179.629 106.232 186.115 113.854 187.632C118.897 188.636 123.014 187.678 131.15 183.605C141.218 178.565 154.413 168.069 166.99 155.097L171.922 150.009L177.059 149.75C182.773 149.462 186.418 148.07 187.693 145.688C188.811 143.598 188.016 141.603 185.561 140.346C184.426 139.764 183.35 139.079 183.171 138.825C182.403 137.733 179.814 136.87 177.306 136.87C175.361 136.87 172.572 137.856 167.356 140.387C157.725 145.061 154.517 145.939 144.517 146.635C136.791 147.173 133.755 147.777 119.808 151.552C118.807 151.822 118.057 151.309 116.734 149.45L114.984 146.99L116.92 145.764C119.534 144.109 119.356 143.366 116.347 143.366H113.837L109.593 134.759C104.786 125.011 99.3127 116.384 93.8486 109.943L90.1222 105.551L92.9053 99.6106C94.4359 96.3436 96.516 92.8318 97.5282 91.8067C98.5397 90.7822 99.3673 89.7285 99.3673 89.4654C99.3673 89.203 100.068 88.2318 100.924 87.3081C101.781 86.3843 102.586 85.3124 102.716 84.9259C102.866 84.4725 104.381 84.746 107 85.699C111.737 87.4243 112.185 87.2671 115.713 82.6334C119.634 77.4832 120.02 76.4893 118.525 75.396C116.897 74.2052 111.933 72.7215 106.328 71.7503L101.918 70.9857L99.4186 73.7206C98.0141 75.2576 96.3263 76.4555 95.5662 76.4555C94.823 76.4555 93.1937 76.9421 91.9464 77.5371C89.5375 78.6857 87.6737 82.0903 87.6737 85.3423C87.6737 86.5376 86.5427 88.2546 83.9383 91.0135C81.8841 93.1891 80.0092 95.0587 79.7728 95.1672C79.5363 95.2756 77.0092 93.6555 74.1566 91.5663C71.3047 89.4771 66.6103 86.4655 63.7246 84.8726C58.6392 82.0663 58.4775 81.9032 58.4586 79.5704C58.4411 77.2883 58.5658 77.1435 60.8759 76.768C65.1662 76.0709 68.7834 74.454 70.0431 72.6695C71.278 70.9214 73.3816 62.9376 73.3816 60C73.3816 58.9639 73.8298 58.3006 74.6809 58.0778C75.3955 57.8913 75.9801 57.1982 75.9801 56.5382C75.9801 55.8788 75.3955 53.294 74.6809 50.7956C73.0184 44.9821 73.0275 43.9745 74.7419 43.9745C76.0087 43.9745 76.0704 43.74 75.6391 40.564C74.2787 30.5385 68.239 22.8177 58.9361 19.2117L56.5084 18.2711L58.8328 14.8203C63.4479 7.96744 64.3041 3.29148 61.3034 1.32573C59.4311 0.0985975 53.9696 -0.406157 50.9689 0.370138ZM237.416 20.3797C212.98 22.4767 184.514 25.7339 148.74 30.5248L138.021 31.9605L137.853 65.4925L137.685 99.0246L140.127 99.4033C142.252 99.7333 170.437 102.132 177.649 102.598L180.248 102.765L181.359 107.213C181.97 109.66 182.555 113.002 182.658 114.639L182.846 117.617L178.299 119.356C173.677 121.125 172.269 122.83 174.207 124.311C174.671 124.666 181.406 125.788 189.175 126.804L203.298 128.653L206.685 127.077C211.17 124.992 213.704 122.796 213.704 120.999C213.704 120.193 212.686 116.346 211.442 112.449C210.199 108.552 209.175 105.217 209.169 105.039C209.162 104.86 217.345 105.125 227.355 105.626C237.364 106.128 245.664 106.42 245.799 106.276C245.935 106.131 246.26 86.6468 246.522 62.9759L247 19.9386L243.508 20.0478C241.587 20.1082 238.846 20.2576 237.416 20.3797ZM237.092 21.9615C220.454 23.2868 200.143 25.4877 171.478 29.0716C154.506 31.1939 140.255 32.9304 139.808 32.9304C139.169 32.931 138.996 39.9086 138.996 65.653V98.375L142.731 98.781C150.953 99.6749 183.612 101.815 207.858 103.05C221.971 103.767 235.9 104.522 238.809 104.726L244.1 105.095L244.475 95.8103C244.681 90.703 245.015 71.8348 245.215 53.8812C245.508 27.5509 245.417 21.2554 244.746 21.3282C244.288 21.3782 240.843 21.6634 237.092 21.9615ZM230.595 25.8833C209.764 27.6165 178.913 31.0945 149.065 35.0748L143.218 35.8543L143.049 65.1658L142.88 94.4766L145.323 94.8612C152.903 96.0545 239.486 101.562 240.155 100.893C240.518 100.53 241.576 26.2088 241.226 25.6423C240.873 25.0719 240.157 25.0882 230.595 25.8833ZM216.266 28.7371C207.492 29.5731 189.367 31.5967 175.988 33.235C162.609 34.8734 149.982 36.3941 147.928 36.6137L144.193 37.0139V65.5042C144.193 81.1744 144.423 93.9952 144.705 93.9952C144.987 93.9952 150.322 94.4181 156.561 94.9346C162.8 95.4517 176.529 96.3456 187.069 96.9218C208.737 98.1067 238.659 99.6307 238.827 99.5586C238.889 99.532 239.152 83.2142 239.413 63.2975L239.886 27.0844L236.053 27.1514C233.945 27.1877 225.04 27.9017 216.266 28.7371ZM207.107 36.8417C205.652 37.6102 204.278 39.0472 203.562 40.5485L202.392 43.0001L199.117 41.3761C196.251 39.9547 194.991 39.752 189.019 39.752C182.852 39.752 181.839 39.9281 178.469 41.582C173.52 44.0116 169.112 48.5407 166.659 53.7169C164.859 57.5139 164.656 58.5663 164.656 64.1127C164.656 69.6689 164.857 70.7051 166.667 74.5067C169.116 79.651 173.051 83.6916 178.272 86.4213C181.951 88.3449 182.624 88.4735 189.018 88.4735C195.234 88.4735 196.181 88.3059 199.697 86.5824C204.629 84.1639 208.531 80.246 211.184 75.0471C212.94 71.6061 213.328 70.0314 213.556 65.412C213.746 61.5883 213.534 59.0412 212.869 57.1293C212.017 54.6829 212.018 54.3685 212.88 54.3685C213.415 54.3685 214.941 53.7565 216.273 53.0082C222.689 49.4021 222.628 40.084 216.167 36.767C213.132 35.2092 210.151 35.2333 207.107 36.8417ZM212.43 42.8851C211.038 46.4743 210.83 46.7146 210.25 45.4128C208.971 42.5454 207.307 44.3266 208.524 47.2616C209.049 48.5316 209.778 49.1702 210.697 49.1683C211.83 49.1657 212.392 48.2893 213.795 44.3377C215.014 40.9025 215.286 39.4253 214.738 39.2148C214.279 39.0387 213.346 40.5225 212.43 42.8851ZM182.707 40.9804C175.963 43.184 170.67 47.8723 167.678 54.2905C166.238 57.3788 165.976 58.843 165.976 63.7879C165.976 68.7582 166.236 70.1912 167.707 73.349C170.127 78.5421 174.542 83.0388 179.446 85.3033C182.982 86.9365 184.239 87.171 189.343 87.1476C194.324 87.1249 195.722 86.8631 198.787 85.3787C203.406 83.1427 208.084 78.4498 210.246 73.8817C212.295 69.554 212.922 63.1292 211.765 58.3077C211.037 55.2721 210.695 54.8316 208.123 53.6227C205.092 52.1981 203.091 49.5665 202.34 46.0196C201.947 44.1636 201.342 43.5965 198.245 42.1783C193.853 40.1678 186.848 39.6279 182.707 40.9804ZM60.9877 43.7108C60.5147 44.2805 58.6516 45.594 56.8475 46.6289C54.093 48.2088 53.0984 48.4491 50.6389 48.1289C48.2332 47.8151 47.5017 47.9781 46.537 49.0435C44.0846 51.7537 45.4638 56.3173 48.7361 56.3173C49.5864 56.3173 50.2861 58.0771 51.9011 64.2752C53.0412 68.6523 54.1216 72.7442 54.3022 73.3698C54.5991 74.4014 53.978 74.5099 47.6018 74.5391L40.5746 74.5716L46.4214 76.7037C49.6371 77.8756 53.1764 79.3087 54.286 79.8875L56.3044 80.9398L57.0612 78.4122C57.848 75.7864 58.2546 75.5324 62.806 74.825C68.1571 73.9935 70.0742 71.2807 71.469 62.5634C72.1115 58.5494 72.5474 57.3729 73.4849 57.128C74.1429 56.9559 74.6809 56.7253 74.6809 56.6155C74.6809 56.5057 74.0825 53.8176 73.3517 50.6429L72.0225 44.8704L68.2065 45.1465C64.8596 45.3888 64.2853 45.2536 63.5323 44.0486C62.5046 42.4031 62.1161 42.3512 60.9877 43.7108ZM66.8851 51.3594C66.8851 52.2578 67.197 53.1855 67.5783 53.4207C68.469 53.9715 68.658 53.7435 68.9328 51.7862C69.0913 50.6591 68.8185 50.1102 68.022 49.9517C67.1807 49.7847 66.8851 50.1505 66.8851 51.3594ZM174.726 54.3314C174.726 54.7089 175.726 55.0181 176.948 55.0181C178.849 55.0181 179.224 55.276 179.542 56.8045C179.904 58.5449 181.872 71.5723 181.872 72.2284C181.872 72.8696 197.387 72.5572 197.788 71.9082C198.047 71.4892 195.521 71.2586 190.68 71.2586C183.647 71.2586 183.171 71.1774 183.171 69.9814C183.171 68.8024 183.707 68.69 190.15 68.5198L197.13 68.3353L197.83 63.2669C198.215 60.4794 198.294 58.0537 198.007 57.8758C197.719 57.6978 193.844 57.7549 189.395 58.0018L181.307 58.4513L180.74 56.2472C180.221 54.232 179.939 54.0268 177.449 53.8442C175.842 53.726 174.726 53.9254 174.726 54.3314ZM181.478 59.9435C181.695 60.5087 181.872 61.3856 181.872 61.8924C181.872 62.4237 182.512 62.8135 183.384 62.8135C184.693 62.8135 184.857 62.5537 184.609 60.8647C184.379 59.2965 184.007 58.9158 182.704 58.9158C181.493 58.9158 181.183 59.1756 181.478 59.9435ZM185.983 60.2748C186.214 61.1349 186.406 62.0587 186.41 62.3263C186.421 62.9103 189.79 62.9753 191.239 62.4192C191.804 62.2022 192.266 61.4714 192.266 60.7951C192.266 59.8889 191.797 59.5628 190.48 59.5563C189.497 59.5518 187.989 59.3595 187.129 59.1289C185.726 58.754 185.608 58.8723 185.983 60.2748ZM193.566 61.2349C193.566 62.5939 193.837 62.8655 195.027 62.6966C195.967 62.5628 196.563 61.9664 196.697 61.0271C196.866 59.837 196.594 59.5654 195.235 59.5654C193.875 59.5654 193.566 59.8753 193.566 61.2349ZM223.992 66.0187C224.165 69.0823 224.405 69.8008 225.16 69.5111C225.683 69.311 226.49 69.6663 226.955 70.3017C227.439 70.963 228.133 71.2508 228.579 70.9753C229.176 70.6063 229.181 70.2783 228.598 69.5767C228.013 68.8712 228.035 68.4223 228.693 67.6291C229.429 66.7418 229.191 66.2929 226.986 64.4057C225.577 63.1994 224.277 62.2009 224.099 62.1873C223.92 62.173 223.872 63.8971 223.992 66.0187ZM63.6369 63.7931C63.6369 64.8851 65.0778 65.6894 66.3031 65.2814C66.7208 65.1417 66.292 64.5233 65.35 63.9055C63.8487 62.9226 63.6369 62.9084 63.6369 63.7931ZM194.053 64.1647C193.428 64.5292 192.916 65.4172 192.916 66.1389C192.916 68.308 195.787 67.4921 196.045 65.2496C196.265 63.3384 195.855 63.1149 194.053 64.1647ZM182.522 66.0616C182.522 67.7305 182.766 68.0105 184.222 68.0105C185.667 68.0105 185.863 67.7922 185.529 66.5488C185.314 65.7446 185.134 64.8676 185.129 64.6C185.124 64.3323 184.536 64.1127 183.821 64.1127C182.81 64.1127 182.522 64.546 182.522 66.0616ZM186.675 65.1404C186.892 65.7056 187.069 66.4364 187.069 66.7645C187.069 67.0926 188.092 67.3608 189.343 67.3608C191.335 67.3608 191.617 67.1595 191.617 65.7368C191.617 64.268 191.361 64.1127 188.949 64.1127C186.783 64.1127 186.355 64.3063 186.675 65.1404ZM155.237 73.3205C153.271 74.4482 152.007 75.4856 152.427 75.626C153.237 75.8975 157.286 73.9844 159.459 72.3045C161.834 70.468 159.034 71.1416 155.237 73.3205ZM100.331 74.5184C98.9418 75.9677 98.4351 77.1539 98.387 79.065L98.322 81.6512L104.755 83.7598L111.189 85.8685L112.758 83.9229C116.228 79.6192 117.753 77.0415 117.173 76.4614C116.53 75.8182 104.891 72.5624 103.224 72.5598C102.666 72.5585 101.364 73.44 100.331 74.5184ZM101.316 74.4631C101.316 75.2524 103.713 76.0073 104.559 75.485C105.844 74.6898 105.182 73.857 103.265 73.857C102.193 73.857 101.316 74.1299 101.316 74.4631ZM183.171 76.1307C183.171 77.3215 183.518 77.7548 184.471 77.7548C185.424 77.7548 185.77 77.3215 185.77 76.1307C185.77 74.94 185.424 74.5067 184.471 74.5067C183.518 74.5067 183.171 74.94 183.171 76.1307ZM195.112 75.4499C194.649 76.6556 195.324 77.7548 196.527 77.7548C197.092 77.7548 197.463 77.1116 197.463 76.1307C197.463 74.3456 195.728 73.8434 195.112 75.4499ZM220.201 76.4302C220.201 77.1292 222.821 78.6097 225.398 79.3665C226.857 79.7946 226.923 79.74 226.048 78.8292C224.752 77.4813 220.201 75.6136 220.201 76.4302ZM93.0781 78.3667C90.8765 79.3665 90.2314 80.0713 89.6714 82.0877C89.2913 83.4565 88.9789 85.315 88.9769 86.2187C88.9743 87.3776 87.7211 89.0991 84.7217 92.0652L80.4705 96.2689L84.8205 100.339C87.2125 102.577 89.2374 104.331 89.3193 104.236C89.4011 104.142 90.5432 101.547 91.8574 98.4705C93.2944 95.1068 95.1381 92.0126 96.4822 90.7101C98.8944 88.3721 99.3407 86.5779 97.6691 85.9367C96.9428 85.6574 96.72 85.013 96.9441 83.8391L97.2683 82.1442L95.7429 84.0093C93.6907 86.5181 93.7739 85.3696 95.9086 81.7096C97.7978 78.4713 97.306 78.6161 93.0333 82.558C89.8279 85.5151 90.5101 83.3291 93.8284 80.0115C97.0695 76.7706 96.9877 76.5919 93.0781 78.3667ZM99.3673 79.004C99.3673 79.6465 102.677 81.0451 107.768 82.5548C111.825 83.7579 112.582 83.8365 112.067 83.003C111.767 82.5178 107.702 81.0457 100.179 78.6987C99.733 78.559 99.3673 78.6967 99.3673 79.004ZM162.608 84.5121C160.876 86.0848 159.633 87.5491 159.845 87.7667C160.354 88.2883 166.006 83.9528 166.503 82.66C167.167 80.9307 165.876 81.544 162.608 84.5121ZM98.1707 83.6013C98.1707 84.4946 98.3181 84.8603 98.4981 84.4134C98.6787 83.9671 98.6787 83.2362 98.4981 82.7893C98.3181 82.343 98.1707 82.7081 98.1707 83.6013ZM100.241 84.6037C99.6369 86.1784 100.48 86.4629 101.286 84.9564C101.789 84.0164 101.799 83.6013 101.319 83.6013C100.937 83.6013 100.453 84.0522 100.241 84.6037ZM212.761 86.8813C213.804 87.9707 214.766 88.5378 214.897 88.1428C215.222 87.1697 213.094 84.9006 211.858 84.9006C211.161 84.9006 211.432 85.495 212.761 86.8813ZM181.222 103.203C181.222 103.452 181.497 104.378 181.834 105.262C182.17 106.146 182.911 109.127 183.481 111.886C184.44 116.529 184.437 116.992 183.441 118.092C182.849 118.746 181.357 119.614 180.126 120.02C178.895 120.427 178.027 120.9 178.2 121.071C178.371 121.243 184.016 121.926 190.745 122.589L202.979 123.794L207.367 121.95C212.802 119.666 213.163 120.368 207.858 122.903C205.714 123.928 203.96 125.151 203.96 125.621C203.96 126.092 204.179 126.474 204.447 126.47C205.557 126.456 211.85 122.438 212.203 121.518C212.69 120.25 208.491 104.98 207.571 104.673C206.056 104.168 181.222 102.782 181.222 103.203ZM186.419 117.233C186.419 118.059 193.652 118.685 202.336 118.61C211.808 118.527 208.319 117.708 195.874 117.091C190.08 116.805 186.419 116.859 186.419 117.233ZM175.376 122.586C175.376 123.388 176.377 123.587 188.368 125.172C193.907 125.905 199.242 126.667 200.224 126.867C201.548 127.135 202.011 126.974 202.011 126.243C202.011 125.141 201.671 125.08 186.744 123.524C181.385 122.966 176.635 122.387 176.188 122.239C175.741 122.091 175.376 122.247 175.376 122.586ZM168.248 141.44C158.41 146.251 154.946 147.238 145.56 147.909C134.716 148.683 125.92 150.523 119.441 153.368C118.678 153.703 117.889 153.036 116.469 150.851L114.534 147.878L113.786 149.52C113.308 150.568 112.504 151.166 111.562 151.172C109.402 151.186 108.326 152.08 107.539 154.517C106.93 156.398 106.519 156.71 104.41 156.885C102.295 157.06 101.913 157.351 101.438 159.159C100.938 161.061 100.676 161.231 98.2454 161.231C96.1113 161.231 95.3142 161.589 94.1429 163.073C92.9144 164.63 92.3648 164.854 90.5906 164.521C88.6521 164.157 88.4611 164.278 88.0953 166.106C87.853 167.318 87.1521 168.287 86.2841 168.608C84.979 169.091 85.194 169.403 89.0321 172.604C98.4682 180.473 108.214 185.646 115.395 186.599C117.892 186.93 119.656 186.655 123.676 185.305C134.779 181.578 145.186 174.041 162.383 157.273C172.394 147.511 174.992 145.604 180.577 143.921L183.496 143.042L179.436 142.848C177.203 142.742 175.376 142.376 175.376 142.036C175.376 141.696 176.033 141.397 176.837 141.372C177.641 141.347 178.884 141.06 179.598 140.735C180.576 140.291 180.174 140.179 177.974 140.281C174.449 140.446 174.313 139.307 177.79 138.749L180.248 138.354L177.591 138.262C175.598 138.192 173.266 138.986 168.248 141.44ZM183.171 140.387C183.171 140.622 183.625 141.507 184.181 142.355C185.37 144.169 185.267 144.254 179.816 145.966C174.112 147.757 173.059 148.542 176.35 148.55C180.021 148.559 183.522 147.462 185.606 145.649C187.037 144.405 187.257 143.871 186.709 142.974C185.954 141.742 183.171 139.706 183.171 140.387ZM111.438 145.91C106.375 151.195 92.0699 159.781 84.7503 161.928C80.8687 163.067 78.5787 164.769 78.5787 166.515C78.5787 167.258 78.897 167.224 80.2554 166.334C81.8341 165.299 82.0446 165.302 83.8733 166.382C84.9413 167.012 85.8794 167.428 85.958 167.303C86.0373 167.179 86.3926 166.2 86.7473 165.129C87.3073 163.44 87.7082 163.18 89.7474 163.18C91.5547 163.18 92.4363 162.755 93.5406 161.352C94.7178 159.856 95.3999 159.561 97.2878 159.728C99.4011 159.915 99.6414 159.757 100.14 157.857C100.632 155.985 100.953 155.764 103.437 155.584C105.877 155.407 106.211 155.187 106.389 153.645C106.634 151.529 107.804 150.483 110.553 149.92C112.054 149.614 112.742 149.047 113.014 147.897C113.221 147.018 114.041 145.976 114.836 145.58C117.161 144.421 117.252 144.016 115.189 144.016C113.899 144.016 112.648 144.647 111.438 145.91Z" fill="black"/>
<path d="M9.71265 175.288C11.4123 179.459 11.2863 180.053 11.1433 180.109C27.5587 182.599 62.4639 186.33 71.4506 181.427C80.4528 176.516 81.0714 175.288 80.2554 175.288L79.8877 168.371C76.6642 170.038 75.6989 168.488 77.6315 164.751C78.6196 162.841 78.5826 162.737 75.0245 157.39C70.8674 151.142 64.5796 139.467 65.3734 139.471C65.669 139.473 68.9361 144.564 72.6338 150.786L79.3563 162.097L82.7033 161.11C88.148 159.504 93.5095 157.079 99.0425 153.723C104.944 150.143 111.61 145.032 112.124 143.693C112.561 142.555 106.948 130.936 102.866 124.527C91.467 106.635 75.4767 92.0678 57.1782 82.9075C50.3939 79.5113 39.467 75.6234 33.9677 74.6483L30.6091 74.0532L25.8472 78.036C13.4942 88.3689 4.92803 103.763 2.1599 120.603C0.910637 128.204 1.30432 145.073 2.90439 152.461C4.47133 159.698 7.50646 169.875 9.71265 175.288Z" fill="#EAA000"/>
<path d="M111.438 145.91C106.375 151.195 92.0699 159.781 84.7503 161.928C80.8687 163.067 78.5787 164.769 78.5787 166.515C78.5787 167.258 78.897 167.224 80.2554 166.334C81.8341 165.299 82.0446 165.302 83.8733 166.382C84.9413 167.012 85.8794 167.428 85.958 167.303C86.0373 167.179 86.3926 166.2 86.7473 165.129C87.3073 163.44 87.7082 163.18 89.7474 163.18C91.5547 163.18 92.4363 162.755 93.5406 161.352C94.7178 159.856 95.3999 159.561 97.2878 159.728C99.4011 159.915 99.6414 159.757 100.14 157.857C100.632 155.985 100.953 155.764 103.437 155.584C105.877 155.407 106.211 155.187 106.389 153.645C106.634 151.529 107.804 150.483 110.553 149.92C112.054 149.614 112.742 149.047 113.014 147.897C113.221 147.018 114.041 145.976 114.836 145.58C117.161 144.421 117.252 144.016 115.189 144.016C113.899 144.016 112.648 144.647 111.438 145.91Z" fill="#28C656"/>
<path d="M212.43 42.8851C211.038 46.4743 210.83 46.7146 210.25 45.4128C208.971 42.5454 207.307 44.3266 208.524 47.2616C209.049 48.5316 209.778 49.1702 210.697 49.1683C211.83 49.1657 212.392 48.2893 213.795 44.3377C215.014 40.9025 215.286 39.4253 214.738 39.2148C214.279 39.0387 213.346 40.5225 212.43 42.8851Z" fill="#28C656"/>
<path fill-rule="evenodd" clip-rule="evenodd" d="M182.707 40.9804C175.963 43.184 170.67 47.8723 167.678 54.2905C166.238 57.3788 165.976 58.843 165.976 63.7879C165.976 68.7582 166.236 70.1912 167.707 73.349C170.127 78.5421 174.542 83.0388 179.446 85.3033C182.982 86.9365 184.239 87.171 189.343 87.1476C194.324 87.1249 195.722 86.8631 198.787 85.3787C203.406 83.1427 208.084 78.4498 210.246 73.8817C212.295 69.554 212.922 63.1292 211.765 58.3077C211.037 55.2721 210.695 54.8316 208.123 53.6227C205.092 52.1981 203.091 49.5665 202.34 46.0196C201.947 44.1636 201.342 43.5965 198.245 42.1783C193.853 40.1678 186.848 39.6279 182.707 40.9804ZM176.948 55.0181C175.726 55.0181 174.726 54.7089 174.726 54.3314C174.726 53.9254 175.842 53.726 177.449 53.8442C179.939 54.0268 180.221 54.232 180.74 56.2472L181.307 58.4513L189.395 58.0018C193.844 57.7549 197.719 57.6978 198.007 57.8758C198.294 58.0537 198.215 60.4794 197.83 63.2669L197.13 68.3353L190.15 68.5198C183.707 68.69 183.171 68.8024 183.171 69.9814C183.171 71.1774 183.647 71.2586 190.68 71.2586C195.521 71.2586 198.047 71.4892 197.788 71.9082C197.387 72.5572 181.872 72.8696 181.872 72.2284C181.872 71.5723 179.904 58.5449 179.542 56.8045C179.224 55.276 178.849 55.0181 176.948 55.0181ZM184.471 77.7548C183.518 77.7548 183.171 77.3215 183.171 76.1307C183.171 74.94 183.518 74.5067 184.471 74.5067C185.424 74.5067 185.77 74.94 185.77 76.1307C185.77 77.3215 185.424 77.7548 184.471 77.7548ZM196.527 77.7548C195.324 77.7548 194.649 76.6556 195.112 75.4499C195.728 73.8434 197.463 74.3456 197.463 76.1307C197.463 77.1116 197.092 77.7548 196.527 77.7548Z" fill="#28C656"/>
<path fill-rule="evenodd" clip-rule="evenodd" d="M181.222 103.203C181.222 103.452 181.497 104.378 181.834 105.262C182.17 106.146 182.911 109.127 183.481 111.886C184.44 116.529 184.437 116.992 183.441 118.092C182.849 118.746 181.357 119.614 180.126 120.02C178.895 120.427 178.027 120.9 178.2 121.071C178.371 121.243 184.016 121.926 190.745 122.589L202.979 123.794L207.367 121.95C212.802 119.666 213.163 120.368 207.858 122.903C205.714 123.928 203.96 125.151 203.96 125.621C203.96 126.092 204.179 126.474 204.447 126.47C205.557 126.456 211.85 122.438 212.203 121.518C212.69 120.25 208.491 104.98 207.571 104.673C206.056 104.168 181.222 102.782 181.222 103.203ZM202.336 118.61C193.652 118.685 186.419 118.059 186.419 117.233C186.419 116.859 190.08 116.805 195.874 117.091C208.319 117.708 211.808 118.527 202.336 118.61Z" fill="black"/>
</svg>
