<svg width="155" height="48" viewBox="0 0 155 48" fill="none" xmlns="http://www.w3.org/2000/svg">
<path fill-rule="evenodd" clip-rule="evenodd" d="M74.6879 2.63211C73.414 4.07935 72.3719 5.70674 72.3719 6.24855C72.3719 7.42028 72.1522 7.43672 68.9094 6.51222C66.1067 5.71332 61.5971 6.19332 59.894 7.47157C58.8891 8.22576 59.1434 8.50653 62.34 10.1668C69.0965 13.6761 71.9236 17.7291 71.9895 24C72.0625 30.9567 68.5092 35.1215 61.3197 36.5063C56.6519 37.4058 50.3163 33.8788 49.6047 29.9849C49.1743 27.6296 50.5513 24.0329 52.4555 22.5416C55.1827 20.4046 59.5623 22.5416 59.5623 26.0094C59.5623 27.2121 59.274 28.3792 58.9218 28.6027C58.5695 28.8263 58.2813 29.5831 58.2813 30.2854C58.2813 32.3698 61.8187 31.9765 64.0949 29.6397C67.6772 25.9621 65.9792 19.8076 60.5038 16.6238C56.0524 14.0351 50.5712 15.214 46.3517 19.6682L44.3502 21.7808L42.398 18.5241C40.2517 14.9438 37.4599 12.478 33.5882 10.7448C31.5777 9.84395 28.8351 9.5829 20.1726 9.46586C10.3957 9.33435 8.81048 9.14959 4.64094 7.65764C0.493182 6.17359 -0.0025521 6.11507 9.82594e-06 7.10794C0.00193127 7.71879 1.16889 9.79792 2.59396 11.7278L5.18535 15.237L3.55213 16.9138C2.65417 17.8356 1.91889 18.9593 1.91889 19.4104C1.91889 20.2685 3.86404 21.0168 6.13647 21.0319C7.40014 21.0404 7.45586 21.3166 7.1811 26.1942C6.94668 30.3439 7.13498 31.9121 8.1463 34.249C10.7947 40.3693 16.2753 44.7958 21.3005 44.8734C22.8076 44.8971 26.53 44.2409 29.5723 43.4157C33.8399 42.2584 35.9214 42.0204 38.6768 42.3735C40.6418 42.6253 42.4146 43.1066 42.617 43.4433C43.0609 44.1804 46.1121 44.2685 46.1121 43.5439C46.1121 41.758 40.7584 35.7784 37.7193 34.1694C35.6454 33.072 35.3719 32.6124 35.0305 29.6541C34.5591 25.5695 33.3838 23.6725 30.1789 21.8229C26.3417 19.609 22.9293 19.8812 20.0029 22.6343C17.8522 24.6582 17.6107 25.2164 17.6107 28.1707C17.6107 30.7371 17.9482 31.8247 19.1543 33.1424C21.1481 35.3208 24.314 35.9428 26.8362 34.6507L28.7673 33.6618L27.8014 35.1755C25.6603 38.5302 19.8947 38.9767 16.8178 36.0263C14.4474 33.7532 13.4463 31.3072 13.4578 27.8137C13.4738 23.1196 15.5259 19.8214 19.8524 17.5371C24.3479 15.1634 28.6148 15.3929 33.1578 18.2512C35.7837 19.9042 36.4498 20.8024 38.1887 25.0369C41.785 33.7979 42.4409 35.0255 44.8401 37.4887C46.1429 38.8261 48.7938 40.7165 50.7319 41.6897C55.2313 43.9496 61.2781 44.1094 66.8682 42.1164C71.5508 40.4463 71.513 40.4449 71.9588 42.2466C72.4827 44.3625 75.9182 48 77.3933 48C78.762 48 82.2577 44.2882 82.9264 42.1256C83.4433 40.4548 83.4708 40.4548 88.1233 42.1256C96.1895 45.0227 103.297 43.6524 109.206 38.0607C112.367 35.0689 113.785 32.6637 116.021 26.496C116.782 24.3998 117.832 22.007 118.356 21.1785C119.855 18.8088 124.473 16.3864 128.224 16.0031C137.328 15.072 144.367 24.8015 140.422 32.8636C137.527 38.7781 129.479 39.9649 126.823 34.8684C126.214 33.7006 126.279 33.6894 128.134 34.6402C132.596 36.9252 137.061 33.84 137.061 28.4706C137.061 24.8384 136.377 23.4996 133.631 21.7572C127.607 17.9356 119.8 22.7928 119.755 30.3899C119.744 32.2803 119.34 32.7925 116.495 34.5205C112.909 36.6983 108.535 42.1834 109.125 43.7615C109.455 44.6446 109.725 44.6367 111.502 43.6938C115.073 41.7975 119.48 41.7909 126.523 43.6701C132.509 45.2673 133.167 45.3225 135.952 44.4618C140.029 43.2026 143.48 40.2358 145.74 36.0487C147.395 32.9799 147.629 31.8904 147.629 27.216V21.8834L150.351 21.1358C151.847 20.7248 153.073 20.0686 153.073 19.678C153.073 19.2868 152.236 18.1085 151.213 17.0584L149.354 15.1496L151.486 12.7595C153.532 10.466 155.451 6.82455 154.906 6.2663C154.763 6.11967 152.491 6.74893 149.857 7.66619C145.582 9.15287 143.929 9.34619 134.499 9.45994C125.048 9.57369 123.592 9.74465 120.728 11.0755C116.902 12.8535 114.455 15.1239 112.276 18.9173L110.664 21.7249L108.1 19.3466C102.045 13.7306 95.8328 13.7839 90.9497 19.4933C89.3844 21.3238 89.0244 22.3312 89.0244 24.8864C89.0244 27.4698 89.3434 28.3417 90.821 29.7949C92.6092 31.5538 95.6297 32.1672 96.3784 30.9232C96.5898 30.5727 96.3182 29.4036 95.7757 28.3259C94.4589 25.7122 94.5185 25.2039 96.3611 23.3129C99.8857 19.6938 105.036 22.7915 105.036 28.5304C105.036 30.7108 104.654 31.6918 103.275 33.0477C99.1517 37.102 94.2962 37.6254 88.4128 34.6488C83.5573 32.1929 81.5052 26.1732 83.2831 19.6018C84.1516 16.3917 88.6382 11.7429 92.4017 10.153C94.0644 9.45139 95.4254 8.51836 95.4267 8.08044C95.4324 6.21567 89.0187 5.58247 84.1222 6.96395C83.0852 7.25655 82.6343 7.00143 82.3045 5.9349C81.8184 4.36274 78.2893 0 77.5041 0C77.2293 0 75.9618 1.18422 74.6879 2.63211ZM42.8739 7.1303C40.9742 8.70969 40.9217 12.0592 42.7675 13.9542C44.6134 15.8492 47.876 15.7953 49.4145 13.845C52.98 9.32384 47.2778 3.4698 42.8739 7.1303ZM106.464 6.3577C106.016 6.54313 105.212 7.56362 104.677 8.62619C103.859 10.2503 103.836 10.8434 104.536 12.3419C105.749 14.9405 108.392 16.0925 110.622 14.9951C116.451 12.1256 112.478 3.87354 106.464 6.3577Z" fill="#4B9A62"/>
</svg>
