<svg width="547" height="482" viewBox="0 0 547 482" fill="none" xmlns="http://www.w3.org/2000/svg">
<path d="M340.866 293.748C337.919 331.653 330.963 360.21 331.645 366.48C331.645 366.48 345.366 413.457 339.226 465.396C339.226 465.396 314.978 467.576 304.665 465.396C304.665 465.396 303.672 459.572 301.725 450.839C297.989 434.067 294.543 406.558 290.481 388.903C289.132 383.053 283.739 360.303 278.512 335.766C270.874 352.562 263.719 363.425 257.483 378.164C257.483 378.164 258.552 435.132 233.821 466.85L194.776 464.723C194.776 464.723 205.848 419.514 210.999 380.058L244.035 211.056H303.021C303.021 211.056 344.331 241.093 340.866 293.748Z" fill="#F7F3EF" stroke="#070707" stroke-width="2" stroke-linecap="round" stroke-linejoin="round"/>
<path d="M278.149 356.547L270.37 298.725" stroke="#070707" stroke-width="2" stroke-linecap="round" stroke-linejoin="round"/>
<path d="M295.195 101.944C303.385 103.961 324.034 109.257 330.07 118.248C337.935 129.943 350.877 186.263 350.877 186.263L328.307 179.606C328.307 179.606 313.836 153.375 312.859 153.375C311.882 153.375 302.952 210.745 302.952 210.745H243.975L239.077 181.75C239.077 181.75 226.549 171.565 227.334 165.3C228.12 159.035 228.354 157.209 228.354 157.209C228.354 157.209 221.651 159.675 203.255 177.885L181.732 168.444C181.732 168.444 215.006 121.377 224.594 115.733C234.183 110.089 245.535 108.919 245.535 108.919L295.195 101.944Z" fill="#F7F3EF" stroke="#070707" stroke-width="2" stroke-linecap="round" stroke-linejoin="round"/>
<path d="M266.797 63.0127C266.797 63.0127 274.167 92.7293 298.607 103.071C298.607 103.071 280.755 115.44 243.201 110.851C243.201 110.851 256.523 95.6856 254.005 78.8488L266.797 63.0127Z" fill="#FCBE9F" stroke="#070707" stroke-width="2" stroke-linecap="round" stroke-linejoin="round"/>
<path d="M250.491 105.398C249.47 105.433 248.456 105.228 247.528 104.8C251.169 98.8415 255.576 89.1597 254.043 78.849L266.388 63.5459C266.89 64.2361 267.154 64.6579 267.154 64.6579C268.863 70.0184 269.891 104.555 250.491 105.398Z" fill="#1C0E0C"/>
<path d="M266.798 63.0128C268.534 68.3809 266.142 93.9448 251.966 95.6856C241.308 96.9932 229.512 75.5781 227.983 70.7621C226.454 65.9461 228.324 54.4467 239.725 50.9958C255.009 46.3562 266.798 63.0128 266.798 63.0128Z" fill="#FCBE9F" stroke="#070707" stroke-width="2" stroke-linecap="round" stroke-linejoin="round"/>
<path d="M233.832 57.3535C233.832 57.3535 244.36 66.2876 266.791 63.013C266.791 63.013 273.341 93.2166 298.6 103.071C298.6 103.071 314.911 84.5777 303.943 71.859C296.979 63.8067 281.331 70.8774 281.331 70.8774C281.331 70.8774 295.251 35.808 260.698 35.6431C226.144 35.4783 218.725 72.1849 229.103 73.5461C229.145 73.5461 224.048 63.013 233.832 57.3535Z" fill="#1C0E0C"/>
<path d="M305.609 68.7308C293.656 59.6279 280.698 71.0314 280.698 71.0314" stroke="#070707" stroke-width="2" stroke-linecap="round" stroke-linejoin="round"/>
<path d="M233.502 57.0273C233.502 57.0273 239.385 70.2445 261.824 66.9699" stroke="#070707" stroke-width="2" stroke-linecap="round" stroke-linejoin="round"/>
<path d="M224.871 66.0767C224.871 66.0767 221.441 53.1817 225.044 47.1195C228.646 41.0573 245.018 28.9329 256.646 28.1162C268.273 27.2995 293.656 41.3871 293.656 41.3871C293.656 41.3871 272.405 42.4569 268.538 68.7071C268.538 68.7071 258.838 46.8204 241.546 50.5398C224.254 54.2591 224.871 66.0767 224.871 66.0767Z" fill="#20A647" stroke="black" stroke-width="2" stroke-linecap="round" stroke-linejoin="round"/>
<path d="M288.593 98.1592C288.593 98.1592 281.15 118.811 280.384 133.934C280.384 133.934 254.297 137.63 248.268 134.318C244.516 132.251 249.299 103.677 249.299 103.677L240.289 109.843C240.289 109.843 229.374 149.099 228.355 157.209C227.335 165.319 224.204 170.211 239.086 181.749L243.976 210.737L228.025 292.333C228.025 292.333 289.187 296.7 310.909 291.022C332.631 285.343 302.961 210.737 302.961 210.737L307.368 183.16C307.368 183.16 282.534 160.023 295.204 101.944L288.593 98.1592Z" fill="#20A647" stroke="black" stroke-width="2" stroke-linecap="round" stroke-linejoin="round"/>
<path d="M328.455 192.738C326.742 192.036 321.595 176.25 333.989 172.841C350.246 168.393 353.488 176.802 353.055 183.758C352.227 197.163 343.716 199.003 328.455 192.738Z" fill="#F7F3EF" stroke="#070707" stroke-width="2" stroke-linecap="round" stroke-linejoin="round"/>
<path d="M267.396 207.918L267.22 207.826C267.064 207.744 266.925 207.632 266.811 207.497C266.698 207.361 266.613 207.204 266.56 207.035C266.507 206.866 266.489 206.689 266.504 206.513C266.52 206.337 266.571 206.166 266.653 206.009L276.897 183.804C277.063 183.487 277.349 183.25 277.69 183.143C278.031 183.037 278.401 183.07 278.717 183.236L281.04 184.452C281.197 184.534 281.336 184.646 281.45 184.782C281.564 184.918 281.649 185.075 281.702 185.244C281.755 185.413 281.775 185.591 281.759 185.768C281.743 185.944 281.693 186.116 281.611 186.273L269.213 207.362C269.045 207.677 268.76 207.912 268.42 208.016C268.079 208.12 267.711 208.085 267.396 207.918Z" fill="#F7F3EF" stroke="#070707" stroke-width="2" stroke-linecap="round" stroke-linejoin="round"/>
<path d="M268.255 207.903L266.721 207.099L248.048 242.789L249.583 243.593L268.255 207.903Z" fill="#F7F3EF" stroke="#070707" stroke-width="2" stroke-linecap="round" stroke-linejoin="round"/>
<path d="M251.212 252.777C248.798 257.401 242.938 261.826 239.91 260.243C236.883 258.659 237.182 251.32 239.6 246.696C242.018 242.071 245.946 241.473 248.917 243.03C251.887 244.587 253.63 248.157 251.212 252.777Z" fill="#F7F3EF" stroke="#070707" stroke-width="2" stroke-linecap="round" stroke-linejoin="round"/>
<path d="M341.703 196.235C327.278 204.847 297.722 217.527 280.994 221.242C278.951 225.809 272.145 232.884 270.451 233.236C268.5 233.643 267.768 232.684 265.852 231.975C262.568 230.767 264.143 228.397 261.973 227.972C259.804 227.546 259.318 224.275 259.318 224.275C259.318 224.275 257.275 224.544 256.049 227.907C254.516 232.124 252.281 231.139 252.281 231.139C252.281 231.139 253.431 224.325 254.397 223.041C255.985 220.96 257.783 219.048 259.762 217.335C260.981 216.308 271.482 214.333 276.694 214.387C289.747 203.171 311.987 186.737 326.665 180.644C337.204 176.3 354.668 188.481 341.703 196.235Z" fill="#FCBE9F" stroke="#070707" stroke-width="2" stroke-linecap="round" stroke-linejoin="round"/>
<path d="M176.349 189.372C174.636 188.674 169.55 171.622 181.883 168.003C194.216 164.383 203.115 172.849 203.605 179.801C203.835 183.06 191.61 195.618 176.349 189.372Z" fill="#F7F3EF" stroke="#070707" stroke-width="2" stroke-linecap="round" stroke-linejoin="round"/>
<path d="M188.727 202.094C186.769 201.327 166.959 189.107 179.047 179.582C194.848 167.136 200.481 189.521 200.481 189.521L188.727 202.094Z" fill="#FCBE9F" stroke="#070707" stroke-width="2" stroke-linecap="round" stroke-linejoin="round"/>
<path d="M207.952 193.382L207.768 193.459C207.605 193.528 207.431 193.565 207.254 193.567C207.077 193.568 206.902 193.535 206.738 193.469C206.575 193.403 206.425 193.305 206.3 193.18C206.174 193.056 206.074 192.909 206.005 192.746L195.351 170.732C195.282 170.57 195.245 170.395 195.243 170.218C195.242 170.042 195.275 169.866 195.341 169.702C195.407 169.538 195.505 169.389 195.629 169.263C195.753 169.137 195.901 169.037 196.064 168.969L198.478 167.941C198.807 167.802 199.178 167.799 199.509 167.932C199.84 168.066 200.105 168.326 200.245 168.654L208.676 191.615C208.745 191.778 208.782 191.954 208.782 192.131C208.783 192.309 208.749 192.485 208.682 192.649C208.615 192.814 208.515 192.963 208.39 193.089C208.265 193.215 208.116 193.314 207.952 193.382Z" fill="#F7F3EF" stroke="#070707" stroke-width="2" stroke-linecap="round" stroke-linejoin="round"/>
<path d="M208.47 192.709L206.875 193.386L222.601 230.47L224.195 229.794L208.47 192.709Z" fill="#F7F3EF" stroke="#070707" stroke-width="2" stroke-linecap="round" stroke-linejoin="round"/>
<path d="M232.329 234.357C234.364 239.161 234.069 246.5 230.927 247.835C227.784 249.169 222.3 244.284 220.265 239.48C218.23 234.675 220.265 231.259 223.331 229.947C226.485 228.613 230.291 229.556 232.329 234.357Z" fill="#F7F3EF" stroke="#070707" stroke-width="2" stroke-linecap="round" stroke-linejoin="round"/>
<path d="M199.072 189.602C200.119 188.923 202.732 187.73 206.388 191.028C210.045 194.326 220.001 205.438 218.599 206.841C215.916 209.525 210.593 200.507 209.531 201.523C209.228 201.814 209.359 202.516 209.255 203.256C209.152 203.996 208.814 204.767 207.569 205.2C205.906 205.787 207.569 207.919 205.246 209.199C202.924 210.48 204.051 211.116 202.376 213.107C200.46 215.357 189.756 208.697 188.062 205.116C186.368 201.534 194.615 192.504 199.072 189.602Z" fill="#FCBE9F" stroke="#070707" stroke-width="2" stroke-linecap="round" stroke-linejoin="round"/>
<path d="M233.728 76.5376C233.728 76.5376 237.296 78.4931 238.74 74.582" stroke="#070707" stroke-width="2" stroke-linecap="round" stroke-linejoin="round"/>
<path d="M245.846 71.9668C245.846 71.9668 249.82 74.3595 252.744 69.7275" stroke="#070707" stroke-width="2" stroke-linecap="round" stroke-linejoin="round"/>
<path d="M241.619 74.0186V80.2648L244.459 82.2203" stroke="#070707" stroke-width="2" stroke-linecap="round" stroke-linejoin="round"/>
<path d="M246.812 86.1388C246.812 86.1388 250.76 84.8964 251.316 81.9746" stroke="#070707" stroke-width="2" stroke-linecap="round" stroke-linejoin="round"/>
<path d="M246.954 141.132H279.81" stroke="#070707" stroke-width="2" stroke-linecap="round" stroke-linejoin="round"/>
<path d="M248.376 196.183H264.687" stroke="#070707" stroke-width="2" stroke-linecap="round" stroke-linejoin="round"/>
<path d="M282.447 74.0627C286.052 70.0871 287.756 65.7579 286.253 64.3932C284.75 63.0285 280.609 65.1451 277.003 69.1207C273.397 73.0963 271.693 77.4255 273.196 78.7902C274.7 80.1549 278.841 78.0383 282.447 74.0627Z" fill="#E57B07" stroke="#070707" stroke-width="2" stroke-linecap="round" stroke-linejoin="round"/>
<path d="M456.125 306.018H81.3945C53.7803 306.018 31.3945 328.403 31.3945 356.018V431.341C31.3945 458.956 53.7803 481.341 81.3945 481.341H456.125C483.739 481.341 506.125 458.956 506.125 431.341V356.018C506.125 328.403 483.739 306.018 456.125 306.018Z" fill="#F7F3EF"/>
<path d="M510.016 395.923L490.846 307.839L506.662 305.922L521.405 395.923" fill="#F7F3EF"/>
<path d="M510.016 395.923L490.846 307.839L506.662 305.922L521.405 395.923" stroke="#070707" stroke-width="2" stroke-linecap="round" stroke-linejoin="round"/>
<path d="M490.846 307.839L506.662 305.922L508.214 315.412L491.969 312.989L490.846 307.839Z" fill="#1C0E0C"/>
<path d="M28.4749 395.923L47.6447 307.839L31.8282 305.922L17.0811 395.923" fill="#F7F3EF"/>
<path d="M28.4749 395.923L47.6447 307.839L31.8282 305.922L17.0811 395.923" stroke="#070707" stroke-width="2" stroke-linecap="round" stroke-linejoin="round"/>
<path d="M31.8282 305.922L47.6446 307.839L45.372 318.284L31.1729 309.933L31.8282 305.922Z" fill="#070707"/>
<path d="M269.079 306.021C417.128 306.021 537.145 297.177 537.145 286.267C537.145 275.356 417.128 266.512 269.079 266.512C121.029 266.512 1.01172 275.356 1.01172 286.267C1.01172 297.177 121.029 306.021 269.079 306.021Z" fill="#F7F3EF" stroke="#070707" stroke-width="2" stroke-linecap="round" stroke-linejoin="round"/>
<path d="M537.157 286.266V296.738C537.157 307.651 417.137 316.493 269.09 316.493C139.604 316.493 31.5636 309.729 6.50336 300.734C2.91621 299.464 1 298.111 1 296.738V286.266C1 287.635 2.88939 288.97 6.4842 290.258C7.65182 290.675 8.99955 291.09 10.5274 291.504C41.6774 299.871 145.628 306.017 269.071 306.017C392.513 306.017 496.46 299.882 527.61 291.504C533.826 289.836 537.157 288.076 537.157 286.266Z" fill="#F7F3EF" stroke="#070707" stroke-width="2" stroke-linecap="round" stroke-linejoin="round"/>
<path d="M376.674 304.303C368.914 354.2 283.865 383.821 221.534 377.962C145.05 370.757 104.005 333.835 86.9735 313.651C85.4847 311.893 84.5317 309.745 84.2281 307.461C83.9244 305.177 84.2827 302.854 85.2604 300.768C133.062 304.027 197.006 306.017 267.262 306.017C306.234 306.017 343.263 305.403 376.674 304.303Z" fill="#F7F3EF" stroke="#070707" stroke-width="2" stroke-linecap="round" stroke-linejoin="round"/>
<path d="M456.261 271.826L455.368 272.19L376.685 304.238V304.303C343.273 305.404 306.244 306.017 267.273 306.017C197.016 306.017 133.072 304.027 85.2705 300.768C86.558 297.968 88.8731 295.771 91.7358 294.633L157.481 268.283C157.481 268.283 159.156 268.203 162.321 268.068C189.171 266.945 323.203 262.071 456.261 271.826Z" fill="#F7F3EF" stroke="#070707" stroke-width="2" stroke-linecap="round" stroke-linejoin="round"/>
<path d="M140.117 292.781C142.93 295.189 146.13 296.543 149.472 295.508L152.488 294.572C154.603 293.92 156.067 292.655 157.321 291.014C158.524 289.453 158.785 286.585 158.152 284.495C156.868 280.239 151.856 277.977 147.613 279.3L145.268 280.024C142.175 280.983 140.611 282.405 139.653 284.242C139.159 285.178 138.864 286.589 138.22 287.448C137.637 288.215 136.721 288.744 137.036 290.208C137.35 291.673 138.331 291.263 140.117 292.781Z" fill="#F7F3EF" stroke="#070707" stroke-width="2" stroke-linecap="round" stroke-linejoin="round"/>
<path d="M188.217 272.486C188.322 272.486 188.426 272.507 188.522 272.549C188.618 272.59 188.704 272.651 188.776 272.727C188.848 272.803 188.904 272.893 188.939 272.992C188.975 273.09 188.99 273.195 188.984 273.299C188.601 279.729 183.507 284.802 177.299 284.802C171.09 284.802 166.012 279.718 165.614 273.299C165.607 273.195 165.623 273.09 165.658 272.992C165.694 272.893 165.749 272.803 165.821 272.727C165.893 272.651 165.98 272.59 166.076 272.549C166.172 272.507 166.276 272.486 166.38 272.486H188.217Z" fill="#F7F3EF" stroke="#070707" stroke-width="2" stroke-linecap="round" stroke-linejoin="round"/>
<path d="M188.383 272.486C188.383 278.621 183.401 281.957 177.292 281.957C171.183 281.957 166.201 278.614 166.201 272.486H188.383Z" fill="#F7F3EF" stroke="#070707" stroke-width="2" stroke-linecap="round" stroke-linejoin="round"/>
<path d="M179.396 279.2C179.412 279.252 179.417 279.306 179.411 279.359C179.405 279.413 179.387 279.465 179.36 279.511C179.332 279.557 179.295 279.597 179.251 279.628C179.207 279.659 179.157 279.681 179.104 279.691C177.902 279.855 176.682 279.855 175.479 279.691C175.427 279.68 175.377 279.658 175.333 279.627C175.29 279.596 175.253 279.556 175.226 279.51C175.199 279.463 175.182 279.412 175.176 279.359C175.17 279.305 175.175 279.252 175.192 279.2L176.955 274.484C176.98 274.414 177.026 274.354 177.086 274.311C177.147 274.268 177.219 274.245 177.294 274.245C177.368 274.245 177.44 274.268 177.501 274.311C177.562 274.354 177.608 274.414 177.633 274.484L179.396 279.2Z" fill="#F7F3EF" stroke="#070707" stroke-width="2" stroke-linecap="round" stroke-linejoin="round"/>
<path d="M186.314 272.713C186.256 273.626 186.031 274.52 185.651 275.351C185.625 275.403 185.58 275.442 185.526 275.461C185.471 275.48 185.411 275.476 185.36 275.451L180.331 272.889C180.298 272.864 180.272 272.829 180.258 272.789C180.244 272.75 180.242 272.707 180.252 272.666C180.263 272.625 180.285 272.588 180.316 272.56C180.347 272.531 180.386 272.512 180.427 272.506H186.107C186.161 272.508 186.213 272.53 186.251 272.569C186.289 272.607 186.312 272.659 186.314 272.713Z" fill="#F7F3EF" stroke="#070707" stroke-width="2" stroke-linecap="round" stroke-linejoin="round"/>
<path d="M174.042 273.008L169.274 275.439C169.241 275.458 169.204 275.47 169.166 275.474C169.128 275.477 169.089 275.473 169.053 275.461C169.016 275.448 168.983 275.428 168.955 275.402C168.927 275.376 168.905 275.344 168.891 275.308C168.531 274.512 168.317 273.657 168.259 272.785C168.256 272.749 168.261 272.712 168.273 272.677C168.286 272.642 168.305 272.611 168.33 272.584C168.355 272.557 168.386 272.536 168.42 272.522C168.454 272.508 168.49 272.501 168.527 272.501H173.892C173.954 272.495 174.017 272.51 174.069 272.545C174.121 272.58 174.159 272.632 174.177 272.692C174.195 272.752 174.191 272.817 174.166 272.874C174.142 272.932 174.097 272.979 174.042 273.008Z" fill="#F7F3EF" stroke="#070707" stroke-width="2" stroke-linecap="round" stroke-linejoin="round"/>
<path d="M184.573 276.969C183.637 278.003 182.448 278.776 181.124 279.212C181.038 279.242 180.943 279.238 180.86 279.2C180.777 279.162 180.712 279.094 180.679 279.009L178.763 274.135C178.735 274.069 178.729 273.996 178.745 273.926C178.761 273.855 178.798 273.792 178.851 273.744C178.904 273.695 178.971 273.665 179.042 273.656C179.114 273.647 179.186 273.661 179.249 273.695L184.488 276.428C184.534 276.455 184.572 276.491 184.602 276.534C184.631 276.578 184.651 276.627 184.659 276.679C184.667 276.731 184.664 276.783 184.649 276.834C184.634 276.884 184.608 276.93 184.573 276.969Z" fill="#F7F3EF" stroke="#070707" stroke-width="2" stroke-linecap="round" stroke-linejoin="round"/>
<path d="M175.589 274.196L173.735 278.92C173.696 279.011 173.624 279.084 173.534 279.124C173.443 279.163 173.34 279.166 173.248 279.131C171.978 278.684 170.843 277.921 169.948 276.915C169.913 276.871 169.887 276.82 169.874 276.765C169.86 276.711 169.859 276.654 169.87 276.598C169.881 276.543 169.904 276.491 169.937 276.446C169.971 276.4 170.014 276.363 170.063 276.336L175.064 273.725C175.133 273.693 175.209 273.682 175.283 273.693C175.357 273.704 175.427 273.736 175.483 273.787C175.539 273.837 175.579 273.903 175.598 273.975C175.617 274.048 175.614 274.125 175.589 274.196Z" fill="#F7F3EF" stroke="#070707" stroke-width="2" stroke-linecap="round" stroke-linejoin="round"/>
<path d="M491.819 212.355C488.753 223.942 479.398 256.247 470.618 255.561C459.922 254.725 473.155 206.289 473.155 206.289C473.155 206.289 483.806 163.669 494.525 164.038C505.244 164.406 491.819 212.355 491.819 212.355Z" fill="#F7F3EF" stroke="#070707" stroke-width="2" stroke-linecap="round" stroke-linejoin="round"/>
<path d="M479.199 233.908C479.23 233.208 477.53 232.565 475.403 232.472C473.275 232.379 471.526 232.871 471.496 233.572C471.465 234.272 473.165 234.915 475.292 235.008C477.419 235.101 479.168 234.609 479.199 233.908Z" fill="#F7F3EF" stroke="#070707" stroke-width="2" stroke-linecap="round" stroke-linejoin="round"/>
<path d="M490.662 181.626C492.792 181.626 494.518 181.057 494.518 180.356C494.518 179.655 492.792 179.087 490.662 179.087C488.533 179.087 486.807 179.655 486.807 180.356C486.807 181.057 488.533 181.626 490.662 181.626Z" fill="#F7F3EF" stroke="#070707" stroke-width="2" stroke-linecap="round" stroke-linejoin="round"/>
<path d="M487.933 192.861C490.773 192.861 493.076 192.102 493.076 191.166C493.076 190.23 490.773 189.471 487.933 189.471C485.092 189.471 482.79 190.23 482.79 191.166C482.79 192.102 485.092 192.861 487.933 192.861Z" fill="#F7F3EF" stroke="#070707" stroke-width="2" stroke-linecap="round" stroke-linejoin="round"/>
<path d="M483.522 204.188C486.709 204.188 489.293 203.336 489.293 202.286C489.293 201.236 486.709 200.384 483.522 200.384C480.334 200.384 477.75 201.236 477.75 202.286C477.75 203.336 480.334 204.188 483.522 204.188Z" fill="#F7F3EF" stroke="#070707" stroke-width="2" stroke-linecap="round" stroke-linejoin="round"/>
<path d="M483.485 223.904C483.526 222.969 481.259 222.111 478.421 221.987C475.583 221.863 473.249 222.52 473.209 223.455C473.168 224.39 475.435 225.249 478.273 225.373C481.111 225.497 483.444 224.839 483.485 223.904Z" fill="#F7F3EF" stroke="#070707" stroke-width="2" stroke-linecap="round" stroke-linejoin="round"/>
<path d="M485.72 215.145C485.765 214.095 483.221 213.132 480.036 212.993C476.852 212.854 474.233 213.592 474.187 214.641C474.142 215.69 476.686 216.654 479.871 216.793C483.055 216.932 485.674 216.194 485.72 215.145Z" fill="#F7F3EF" stroke="#070707" stroke-width="2" stroke-linecap="round" stroke-linejoin="round"/>
<path d="M434.447 202.095C434.447 202.095 436.589 199.249 433.324 196.289L434.443 195.883C435.3 196.419 436.032 197.132 436.591 197.975C437.15 198.817 437.521 199.77 437.682 200.768L434.447 202.095Z" fill="#F7F3EF" stroke="#070707" stroke-width="2" stroke-linecap="round" stroke-linejoin="round"/>
<path d="M438.698 226.654C437.373 227.137 435.918 227.113 434.61 226.587C433.302 226.061 432.234 225.07 431.612 223.805L425.123 212.083C423.625 209.016 425.725 205.128 428.917 203.966L429.006 203.931C429.711 203.674 430.46 203.558 431.209 203.59C431.959 203.622 432.696 203.802 433.376 204.119C434.056 204.436 434.668 204.884 435.175 205.437C435.683 205.991 436.076 206.639 436.333 207.344L442.113 219.327C442.63 220.751 442.561 222.323 441.92 223.697C441.28 225.071 440.121 226.135 438.698 226.654Z" fill="#20A647" stroke="black" stroke-width="2" stroke-linecap="round" stroke-linejoin="round"/>
<path d="M449.923 222.559C451.248 222.076 452.348 221.12 453.01 219.875C453.673 218.63 453.853 217.184 453.514 215.814L451.061 202.62C450.245 199.323 446.003 197.731 442.814 198.897L442.722 198.928C442.017 199.185 441.369 199.578 440.816 200.086C440.263 200.594 439.815 201.206 439.499 201.886C439.182 202.567 439.002 203.304 438.97 204.054C438.938 204.804 439.054 205.554 439.311 206.259L442.599 219.146C443.119 220.57 444.182 221.73 445.555 222.37C446.928 223.01 448.5 223.078 449.923 222.559Z" fill="#20A647" stroke="black" stroke-width="2" stroke-linecap="round" stroke-linejoin="round"/>
<path d="M444.696 225.347C444.1 225.565 443.467 225.664 442.833 225.636C442.198 225.609 441.576 225.457 441.001 225.189C440.425 224.921 439.909 224.542 439.48 224.073C439.051 223.605 438.719 223.057 438.503 222.46L432.946 207.218C432.508 206.013 432.565 204.684 433.107 203.522C433.648 202.36 434.628 201.461 435.832 201.022C436.427 200.804 437.06 200.706 437.694 200.733C438.328 200.76 438.95 200.912 439.525 201.18C440.1 201.447 440.617 201.826 441.046 202.294C441.475 202.761 441.808 203.309 442.025 203.905L447.582 219.147C448.02 220.352 447.962 221.682 447.421 222.844C446.88 224.007 445.9 224.907 444.696 225.347Z" fill="#20A647" stroke="black" stroke-width="2" stroke-linecap="round" stroke-linejoin="round"/>
<path d="M418.839 213C418.839 213 410.216 196.758 384.853 210.044L418.839 213Z" fill="#F7F3EF"/>
<path d="M418.839 213C418.839 213 410.216 196.758 384.853 210.044" stroke="#070707" stroke-width="2" stroke-linecap="round" stroke-linejoin="round"/>
<path d="M396.189 205.614C396.189 205.614 390.958 206.991 390.958 208.341C390.958 209.69 393.571 208.962 393.571 208.962C393.571 208.962 389.781 210.837 389.911 212.083C390.042 213.329 392.724 212.083 392.724 212.083C392.724 212.083 390.904 215.883 392.341 216.301C393.778 216.719 393.84 213.774 393.84 213.774C393.84 213.774 395.668 215.216 396.193 214.702C396.718 214.188 394.951 210.618 394.951 210.618C394.951 210.618 396.649 212.854 397.695 212.064C398.741 211.274 395.741 207.796 396.189 205.614Z" fill="#F7F3EF" stroke="#070707" stroke-width="2" stroke-linecap="round" stroke-linejoin="round"/>
<path d="M387.129 208.908C387.129 208.908 382.339 207.612 381.622 208.908C380.905 210.204 383.201 209.644 383.201 209.644C383.201 209.644 378.82 211.631 379.177 212.999C379.533 214.368 381.837 212.999 381.837 212.999C381.837 212.999 381.453 216.262 383.143 215.634C384.834 215.005 384.523 210.572 387.129 208.908Z" fill="#F7F3EF" stroke="#070707" stroke-width="2" stroke-linecap="round" stroke-linejoin="round"/>
<path d="M413.5 196.071C413.5 196.071 417.333 194.25 417.199 193.076C417.065 191.903 415.781 193.49 415.781 193.49C415.781 193.49 417.754 189.913 416.846 189.273C415.938 188.632 415.06 190.718 415.06 190.718C415.06 190.718 413.742 188.529 412.899 189.836C412.056 191.144 414.439 193.636 413.5 196.071Z" fill="#F7F3EF" stroke="#070707" stroke-width="2" stroke-linecap="round" stroke-linejoin="round"/>
<path d="M420.269 213C420.269 213 416.053 197.156 397.565 198.118" stroke="#070707" stroke-width="2" stroke-linecap="round" stroke-linejoin="round"/>
<path d="M398.561 197.904C398.561 197.904 396.48 203.31 394.402 202.244C392.325 201.178 395.28 200.216 395.28 200.216C395.28 200.216 389.202 201.75 389.439 199.576C389.677 197.402 393.996 198.26 393.996 198.26C393.996 198.26 391.697 196.972 393.996 196.412C396.296 195.852 398.561 197.904 398.561 197.904Z" fill="#F7F3EF" stroke="#070707" stroke-width="2" stroke-linecap="round" stroke-linejoin="round"/>
<path d="M408.909 200.04C408.909 200.04 408.265 194.756 406.073 194.756C403.881 194.756 406.518 198.077 406.518 198.077C406.518 198.077 403.877 195.879 403.398 197.398C402.919 198.916 406.081 199.652 406.081 199.652C406.081 199.652 404.046 202.214 405.567 202.087C407.089 201.961 408.909 200.04 408.909 200.04Z" fill="#F7F3EF" stroke="#070707" stroke-width="2" stroke-linecap="round" stroke-linejoin="round"/>
<path d="M408.591 205.591C408.591 205.591 403.521 203.985 402.608 205.975C401.696 207.965 405.812 206.945 405.812 206.945C405.812 206.945 402.72 208.436 403.896 209.506C405.073 210.576 407.054 208.007 407.054 208.007C407.054 208.007 408.541 210.921 409.055 209.483C409.568 208.045 408.591 205.591 408.591 205.591Z" fill="#F7F3EF" stroke="#070707" stroke-width="2" stroke-linecap="round" stroke-linejoin="round"/>
<path d="M412.374 200.4C412.374 200.4 416.59 197.999 415.823 196.83C415.057 195.66 412.477 198.67 412.477 198.67C412.477 198.67 411.584 195.33 410.519 195.86C409.454 196.389 412.374 200.4 412.374 200.4Z" fill="#F7F3EF" stroke="#070707" stroke-width="2" stroke-linecap="round" stroke-linejoin="round"/>
<path d="M415.919 212.809C415.919 212.809 409.078 199.526 414.501 194.568" stroke="#070707" stroke-width="2" stroke-linecap="round" stroke-linejoin="round"/>
<path d="M449.612 176.319C449.612 176.319 455.445 186.58 453.376 228.061L457.492 228.191C457.492 228.191 458.852 189.161 449.612 176.319Z" fill="#F7F3EF" stroke="#070707" stroke-width="2" stroke-linecap="round" stroke-linejoin="round"/>
<path d="M453.376 228.061C453.376 228.061 461.263 174.724 455.675 161.561C455.675 161.561 464.348 174.755 457.477 228.191L453.376 228.061Z" fill="#F7F3EF" stroke="#070707" stroke-width="2" stroke-linecap="round" stroke-linejoin="round"/>
<path d="M453.376 228.061C455.748 208.909 472.714 183.966 472.714 183.966C472.714 183.966 459.155 214.123 457.492 228.18L453.376 228.061Z" fill="#F7F3EF" stroke="#070707" stroke-width="2" stroke-linecap="round" stroke-linejoin="round"/>
<path d="M451.605 243.252C451.605 243.252 452.863 235.94 453.376 228.06C453.376 228.06 455.564 226.262 457.492 228.19C457.092 233.644 457.156 239.121 457.684 244.563L451.605 243.252Z" fill="#F7F3EF" stroke="#070707" stroke-width="2" stroke-linecap="round" stroke-linejoin="round"/>
<path d="M457.666 245.016C457.946 244.037 456.82 242.856 455.151 242.379C453.482 241.902 451.903 242.309 451.623 243.288C451.343 244.268 452.469 245.448 454.138 245.926C455.807 246.403 457.386 245.996 457.666 245.016Z" fill="#F7F3EF" stroke="#070707" stroke-width="2" stroke-linecap="round" stroke-linejoin="round"/>
<path d="M457.036 244.793V244.812C456.956 245.027 456.821 245.217 456.644 245.363C456.467 245.508 456.254 245.604 456.028 245.64C455.462 245.769 454.873 245.746 454.319 245.575C453.035 245.192 452.203 244.302 452.402 243.509V243.482C452.482 243.267 452.618 243.077 452.795 242.931C452.972 242.786 453.184 242.69 453.41 242.653C453.976 242.525 454.565 242.548 455.12 242.719C456.415 243.098 457.247 243.999 457.036 244.793ZM452.755 243.597C452.598 244.183 453.353 244.931 454.415 245.234C454.911 245.388 455.44 245.41 455.947 245.295C456.115 245.275 456.275 245.21 456.41 245.108C456.544 245.005 456.649 244.869 456.714 244.713C456.871 244.13 456.116 243.382 455.055 243.079C454.558 242.925 454.029 242.904 453.522 243.018C453.354 243.038 453.194 243.103 453.059 243.205C452.925 243.308 452.82 243.444 452.755 243.601V243.597Z" fill="#F7F3EF" stroke="#070707" stroke-width="2" stroke-linecap="round" stroke-linejoin="round"/>
<path d="M455.782 244.449C455.667 244.851 455.092 245.028 454.471 244.851C453.85 244.675 453.463 244.226 453.571 243.828C453.686 243.444 454.26 243.249 454.881 243.444C455.494 243.597 455.908 244.046 455.782 244.449ZM453.912 243.923C453.862 244.104 454.13 244.395 454.567 244.518C455.004 244.64 455.387 244.518 455.437 244.361C455.487 244.184 455.219 243.893 454.782 243.766C454.345 243.643 453.961 243.747 453.912 243.927V243.923Z" fill="#F7F3EF" stroke="#070707" stroke-width="2" stroke-linecap="round" stroke-linejoin="round"/>
<path d="M498.322 212.8L488.147 290.397H483.64L472.013 212.8H498.322Z" fill="#F7F3EF" stroke="#070707" stroke-width="2" stroke-linecap="round" stroke-linejoin="round"/>
<path d="M501.193 215.311L491.198 290.783H486.694L475.243 215.311H501.193Z" fill="#F7F3EF" stroke="#070707" stroke-width="2" stroke-linecap="round" stroke-linejoin="round"/>
<path d="M498.613 212.8L488.438 290.396H483.931L472.3 212.8H498.613Z" fill="#F7F3EF" stroke="#070707" stroke-width="2" stroke-linecap="round" stroke-linejoin="round"/>
<path d="M483.931 290.396H420.589L410.41 212.8H472.3L483.931 290.396Z" fill="#F7F3EF" stroke="#070707" stroke-width="2" stroke-linecap="round" stroke-linejoin="round"/>
<path d="M385.838 250.945C385.838 250.945 388.563 249.181 386.708 245.577H387.804C388.371 246.344 388.772 247.221 388.98 248.152C389.188 249.084 389.199 250.048 389.011 250.984L385.838 250.945Z" fill="#F7F3EF" stroke="#070707" stroke-width="2" stroke-linecap="round" stroke-linejoin="round"/>
<path d="M381.477 273.507C380.177 273.493 378.928 272.999 377.971 272.119C377.013 271.239 376.415 270.036 376.291 268.741L374.505 256.521C374.207 253.403 377.284 250.719 380.415 250.769H380.507C381.904 250.785 383.237 251.356 384.214 252.355C385.191 253.355 385.731 254.701 385.715 256.099L386.8 268.312C386.782 269.707 386.211 271.037 385.213 272.011C384.215 272.986 382.871 273.524 381.477 273.507Z" fill="#EA631F" stroke="#070707" stroke-width="2" stroke-linecap="round" stroke-linejoin="round"/>
<path d="M392.491 273.629C393.791 273.645 395.051 273.178 396.027 272.319C397.004 271.46 397.628 270.27 397.78 268.978L399.956 256.8C400.34 253.69 397.182 250.937 394.051 250.903H393.962C392.565 250.887 391.22 251.428 390.221 252.405C389.222 253.382 388.652 254.716 388.635 256.114L387.283 268.299C387.267 269.697 387.807 271.044 388.784 272.043C389.76 273.042 391.094 273.613 392.491 273.629Z" fill="#EA631F" stroke="#070707" stroke-width="2" stroke-linecap="round" stroke-linejoin="round"/>
<path d="M387.076 274.331C385.894 274.318 384.766 273.836 383.94 272.991C383.113 272.146 382.656 271.008 382.668 269.826L382.833 254.872C382.846 253.69 383.328 252.561 384.172 251.734C385.017 250.907 386.155 250.45 387.336 250.462C388.518 250.475 389.645 250.957 390.472 251.802C391.298 252.647 391.756 253.786 391.743 254.968L391.579 269.922C391.573 270.507 391.451 271.086 391.222 271.624C390.992 272.163 390.659 272.651 390.24 273.06C389.822 273.47 389.327 273.793 388.784 274.011C388.241 274.229 387.661 274.338 387.076 274.331Z" fill="#EA631F" stroke="#070707" stroke-width="2" stroke-linecap="round" stroke-linejoin="round"/>
<g style="mix-blend-mode:multiply">
<path d="M284.036 234.587C284.036 246.635 279.253 258.189 270.738 266.708C262.223 275.227 250.675 280.013 238.633 280.013C226.592 280.012 215.044 275.226 206.53 266.707C198.016 258.188 193.232 246.634 193.231 234.587H284.036Z" fill="#F7F3EF"/>
<path d="M284.036 234.587C284.036 246.635 279.253 258.189 270.738 266.708C262.223 275.227 250.675 280.013 238.633 280.013C226.592 280.012 215.044 275.226 206.53 266.707C198.016 258.188 193.232 246.634 193.231 234.587H284.036Z" stroke="#070707" stroke-width="2" stroke-linecap="round" stroke-linejoin="round"/>
</g>
<path d="M283.891 234.442C283.89 246.489 279.106 258.043 270.591 266.562C262.077 275.08 250.529 279.867 238.488 279.868C226.447 279.867 214.899 275.08 206.384 266.562C197.87 258.043 193.086 246.489 193.085 234.442H283.891Z" fill="#F7F3EF" stroke="#070707" stroke-width="2" stroke-linecap="round" stroke-linejoin="round"/>
<path d="M246.442 273.913C250.492 272.522 252.936 268.948 251.901 265.929C250.865 262.911 246.743 261.591 242.693 262.981C238.643 264.372 236.199 267.946 237.234 270.965C238.27 273.983 242.392 275.303 246.442 273.913Z" fill="#F7F3EF" stroke="#070707" stroke-width="2" stroke-linecap="round" stroke-linejoin="round"/>
<path d="M245.771 273.616C249.303 272.222 251.308 268.913 250.248 266.227C249.189 263.54 245.466 262.492 241.934 263.886C238.402 265.28 236.397 268.589 237.457 271.275C238.516 273.962 242.239 275.01 245.771 273.616Z" fill="#F7F3EF" stroke="#070707" stroke-width="2" stroke-linecap="round" stroke-linejoin="round"/>
<path d="M245.156 266.924C245.072 267.307 243.949 268.338 243.949 268.338C243.949 268.338 243.297 267.303 243.382 266.924C243.461 266.714 243.605 266.534 243.792 266.41C243.979 266.286 244.2 266.225 244.424 266.233C244.915 266.233 245.244 266.544 245.156 266.924Z" fill="#F7F3EF" stroke="#070707" stroke-width="2" stroke-linecap="round" stroke-linejoin="round"/>
<path d="M242.561 270.543C242.646 270.16 243.769 269.128 243.769 269.128C243.769 269.128 244.42 270.16 244.336 270.543C244.256 270.752 244.113 270.932 243.926 271.055C243.738 271.178 243.517 271.239 243.293 271.229C242.803 271.229 242.473 270.923 242.561 270.543Z" fill="#F7F3EF" stroke="#070707" stroke-width="2" stroke-linecap="round" stroke-linejoin="round"/>
<path d="M241.676 268.043C242.167 268.043 243.339 268.733 243.339 268.733C243.339 268.733 241.852 269.424 241.362 269.424C240.871 269.424 240.546 269.113 240.634 268.733C240.712 268.523 240.855 268.343 241.043 268.219C241.23 268.094 241.452 268.033 241.676 268.043Z" fill="#F7F3EF" stroke="#070707" stroke-width="2" stroke-linecap="round" stroke-linejoin="round"/>
<path d="M246.03 269.423C245.539 269.423 244.366 268.733 244.366 268.733C244.366 268.733 245.853 268.043 246.344 268.043C246.835 268.043 247.16 268.354 247.072 268.733C246.994 268.944 246.851 269.124 246.663 269.248C246.476 269.372 246.254 269.434 246.03 269.423Z" fill="#F7F3EF" stroke="#070707" stroke-width="2" stroke-linecap="round" stroke-linejoin="round"/>
<path d="M232.651 268.918C234.234 268.918 235.518 267.634 235.518 266.05C235.518 264.466 234.234 263.182 232.651 263.182C231.068 263.182 229.784 264.466 229.784 266.05C229.784 267.634 231.068 268.918 232.651 268.918Z" fill="#F7F3EF" stroke="#070707" stroke-width="2" stroke-linecap="round" stroke-linejoin="round"/>
<path d="M259.038 261.851C259.507 260.013 258.399 258.141 256.561 257.671C254.724 257.202 252.854 258.311 252.384 260.149C251.914 261.987 253.023 263.859 254.86 264.329C256.698 264.799 258.568 263.689 259.038 261.851Z" fill="#F7F3EF" stroke="#070707" stroke-width="2" stroke-linecap="round" stroke-linejoin="round"/>
<path d="M211.477 259.587C211.883 257.733 210.71 255.901 208.858 255.495C207.005 255.089 205.174 256.262 204.768 258.116C204.363 259.969 205.535 261.801 207.388 262.207C209.24 262.613 211.071 261.44 211.477 259.587Z" fill="#F7F3EF" stroke="#070707" stroke-width="2" stroke-linecap="round" stroke-linejoin="round"/>
<path d="M219.145 271.484C220.698 270.977 220.93 267.42 219.663 263.542C218.396 259.663 216.11 256.93 214.557 257.438C213.003 257.946 212.772 261.502 214.039 265.381C215.306 269.26 217.592 271.992 219.145 271.484Z" fill="#F7F3EF" stroke="#070707" stroke-width="2" stroke-linecap="round" stroke-linejoin="round"/>
<path d="M216.383 258.883C217.594 258.779 219.314 261.46 220.031 264.953C220.591 267.668 220.56 270.129 219.035 270.26C218.203 270.332 216.923 268.446 215.969 264.999C215.014 261.552 214.869 259.013 216.383 258.883Z" fill="#F7F3EF" stroke="#070707" stroke-width="2" stroke-linecap="round" stroke-linejoin="round"/>
<path d="M238.318 247.256C240.264 243.67 241.062 240.339 240.101 239.817C239.139 239.294 236.782 241.778 234.836 245.364C232.889 248.95 232.091 252.281 233.053 252.803C234.015 253.326 236.372 250.842 238.318 247.256Z" fill="#F7F3EF" stroke="#070707" stroke-width="2" stroke-linecap="round" stroke-linejoin="round"/>
<path d="M233.222 250.685C232.662 250.053 233.666 247.081 235.594 244.102C237.089 241.782 238.66 239.995 239.373 240.793C239.756 241.226 239.078 243.354 237.273 246.437C235.467 249.52 233.923 251.479 233.222 250.685Z" fill="#F7F3EF" stroke="#070707" stroke-width="2" stroke-linecap="round" stroke-linejoin="round"/>
<path d="M251.48 255.674C254.841 254.225 259.67 253.561 265.506 256.729L251.48 255.674Z" fill="#F7F3EF"/>
<path d="M251.48 255.674C254.841 254.225 259.67 253.561 265.506 256.729" stroke="#070707" stroke-width="2" stroke-linecap="round" stroke-linejoin="round"/>
<path d="M264.924 256.284C264.924 256.284 264.602 260.421 266.276 260.375C267.951 260.329 266.334 258.792 266.334 258.792C266.334 258.792 269.783 261.652 270.308 260.18C270.833 258.707 267.767 257.921 267.767 257.921C267.767 257.921 269.653 257.799 268.338 256.725C267.024 255.651 264.924 256.284 264.924 256.284Z" fill="#F7F3EF" stroke="#070707" stroke-width="2" stroke-linecap="round" stroke-linejoin="round"/>
<path d="M257.57 254.47C257.57 254.47 259.612 251.249 261.019 251.924C262.425 252.599 259.704 253.937 259.704 253.937C259.704 253.937 262.092 253.328 261.935 254.463C261.778 255.598 259.509 255.095 259.509 255.095C259.509 255.095 260.034 257.396 259.091 256.828C258.148 256.261 257.57 254.47 257.57 254.47Z" fill="#F7F3EF" stroke="#070707" stroke-width="2" stroke-linecap="round" stroke-linejoin="round"/>
<path d="M223.587 267.683C224.231 270.67 226.783 275.148 235.977 277.104L223.587 267.683Z" fill="#F7F3EF"/>
<path d="M223.587 267.683C224.231 270.67 226.783 275.148 235.977 277.104" stroke="#070707" stroke-width="2" stroke-linecap="round" stroke-linejoin="round"/>
<path d="M230.03 275.137C230.03 275.137 232.555 276.31 233 275.774C233.444 275.237 232.168 274.669 232.168 274.669C232.168 274.669 234.284 275.172 234.644 274.635C235.004 274.098 233.529 273.711 233.529 273.711C233.529 273.711 235.495 272.802 235.062 272.177C234.628 271.552 233.64 272.687 233.64 272.687C233.64 272.687 233.387 271.514 233.011 271.537C232.636 271.56 232.164 273.565 232.164 273.565C232.164 273.565 232.226 272.119 231.551 272.089C230.877 272.058 230.945 274.42 230.03 275.137Z" fill="#F7F3EF" stroke="#070707" stroke-width="2" stroke-linecap="round" stroke-linejoin="round"/>
<path d="M234.701 276.805C234.701 276.805 236.177 278.895 236.886 278.615C237.595 278.335 236.503 277.806 236.503 277.806C236.503 277.806 238.89 278.458 239.185 277.806C239.48 277.154 238.131 276.932 238.131 276.932C238.131 276.932 239.365 275.781 238.48 275.455C237.595 275.129 236.284 277.004 234.701 276.805Z" fill="#F7F3EF" stroke="#070707" stroke-width="2" stroke-linecap="round" stroke-linejoin="round"/>
<path d="M225.105 271.069C225.105 271.069 226.588 273.37 227.603 272.883C228.619 272.396 226.653 271.445 226.653 271.445C226.653 271.445 228.37 271.87 228.251 271.061C228.132 270.252 226.507 270.616 226.507 270.616C226.507 270.616 226.891 268.975 226.197 269.374C225.503 269.773 225.105 271.069 225.105 271.069Z" fill="#F7F3EF" stroke="#070707" stroke-width="2" stroke-linecap="round" stroke-linejoin="round"/>
<path d="M250.406 274.339C253.357 275.133 258.504 274.906 264.441 267.613L250.406 274.339Z" fill="#F7F3EF"/>
<path d="M250.406 274.339C253.357 275.133 258.504 274.906 264.441 267.613" stroke="#070707" stroke-width="2" stroke-linecap="round" stroke-linejoin="round"/>
<path d="M259.977 272.012C259.977 272.012 262.173 270.298 261.893 269.658C261.613 269.017 260.528 269.896 260.528 269.896C260.528 269.896 261.943 268.239 261.628 267.675C261.314 267.112 260.298 268.247 260.298 268.247C260.298 268.247 260.39 266.08 259.624 266.165C258.857 266.249 259.425 267.664 259.425 267.664C259.425 267.664 258.275 267.349 258.122 267.702C257.968 268.055 259.54 269.382 259.54 269.382C259.54 269.382 258.283 268.668 257.945 269.255C257.608 269.842 259.75 270.885 259.977 272.012Z" fill="#F7F3EF" stroke="#070707" stroke-width="2" stroke-linecap="round" stroke-linejoin="round"/>
<path d="M263.594 268.615C263.594 268.615 266.123 268.255 266.2 267.496C266.277 266.737 265.303 267.469 265.303 267.469C265.303 267.469 266.974 265.64 266.53 265.065C266.085 264.49 265.269 265.605 265.269 265.605C265.269 265.605 264.797 263.98 264.119 264.624C263.441 265.268 264.491 267.296 263.594 268.615Z" fill="#F7F3EF" stroke="#070707" stroke-width="2" stroke-linecap="round" stroke-linejoin="round"/>
<path d="M254.113 274.542C254.113 274.542 256.838 274.274 256.864 273.147C256.891 272.019 255.151 273.335 255.151 273.335C255.151 273.335 256.301 272.004 255.535 271.739C254.768 271.475 254.347 273.089 254.347 273.089C254.347 273.089 253.051 272.012 253.097 272.794C253.143 273.576 254.113 274.542 254.113 274.542Z" fill="#F7F3EF" stroke="#070707" stroke-width="2" stroke-linecap="round" stroke-linejoin="round"/>
<path d="M225.009 255.88C225.009 255.88 227.769 252.633 227.148 251.624C226.527 250.616 226.025 252.591 226.025 252.591C226.025 252.591 226.351 248.511 225.259 248.315C224.166 248.12 224.201 251.041 224.201 251.041C224.201 251.041 222.181 249.055 221.955 250.593C221.729 252.13 223.779 254.159 225.009 255.88Z" fill="#F7F3EF" stroke="#070707" stroke-width="2" stroke-linecap="round" stroke-linejoin="round"/>
<path d="M225.775 260.29C225.775 260.29 228.627 256.36 227.427 255.62C226.227 254.88 225.128 258.688 225.128 258.688C225.128 258.688 222.935 256.003 222.184 256.939C221.433 257.875 225.775 260.29 225.775 260.29Z" fill="#F7F3EF" stroke="#070707" stroke-width="2" stroke-linecap="round" stroke-linejoin="round"/>
<path d="M227.239 262.779C225.357 259.995 224.123 256.835 225.3 254.09L227.239 262.779Z" fill="#F7F3EF"/>
<path d="M227.239 262.779C225.357 259.995 224.123 256.835 225.3 254.09" stroke="#070707" stroke-width="2" stroke-linecap="round" stroke-linejoin="round"/>
<path d="M385.6 278.215C385.602 278.428 385.54 278.637 385.42 278.813C385.3 278.99 385.128 279.125 384.929 279.2L382.426 280.22L359.179 289.687C357.949 290.192 356.633 290.452 355.304 290.454H264.027C263.884 290.456 263.741 290.43 263.609 290.375C263.476 290.321 263.355 290.24 263.254 290.138C263.153 290.036 263.074 289.915 263.021 289.781C262.968 289.648 262.943 289.505 262.947 289.362C262.944 289.148 263.008 288.939 263.128 288.762C263.249 288.586 263.421 288.451 263.621 288.376L289.371 277.885C290.6 277.382 291.914 277.122 293.242 277.118H384.519C384.663 277.116 384.806 277.143 384.939 277.198C385.072 277.252 385.192 277.333 385.293 277.436C385.394 277.538 385.474 277.66 385.526 277.794C385.579 277.928 385.604 278.071 385.6 278.215Z" fill="#F7F3EF" stroke="#070707" stroke-width="2" stroke-linecap="round" stroke-linejoin="round"/>
<path d="M385.6 278.215V281.313C385.602 281.526 385.54 281.735 385.42 281.912C385.3 282.088 385.128 282.223 384.929 282.298L359.179 292.786C357.949 293.29 356.633 293.551 355.304 293.552H264.027C263.884 293.555 263.741 293.528 263.609 293.473C263.476 293.419 263.355 293.338 263.254 293.236C263.153 293.134 263.074 293.013 263.021 292.879C262.968 292.746 262.943 292.603 262.947 292.46V289.361C262.943 289.505 262.968 289.648 263.021 289.781C263.074 289.915 263.153 290.036 263.254 290.138C263.355 290.24 263.476 290.321 263.609 290.375C263.741 290.429 263.884 290.456 264.027 290.454H355.304C356.633 290.452 357.949 290.192 359.179 289.687L382.426 280.22L384.929 279.2C385.128 279.125 385.3 278.99 385.42 278.813C385.54 278.637 385.602 278.428 385.6 278.215Z" fill="#F7F3EF" stroke="#070707" stroke-width="2" stroke-linecap="round" stroke-linejoin="round"/>
<path d="M313.703 279.569L332.953 274.151C333.071 274.118 333.181 274.063 333.277 273.987C333.373 273.911 333.453 273.817 333.512 273.709C333.571 273.602 333.608 273.484 333.62 273.362C333.633 273.241 333.621 273.118 333.586 273.001L332.792 270.317C332.76 270.201 332.705 270.093 332.631 269.998C332.557 269.904 332.465 269.825 332.36 269.766C332.255 269.707 332.14 269.67 332.021 269.656C331.902 269.642 331.781 269.651 331.666 269.684L312.411 275.102C312.294 275.135 312.185 275.192 312.089 275.268C311.994 275.344 311.914 275.438 311.856 275.545C311.797 275.652 311.76 275.77 311.747 275.891C311.733 276.012 311.744 276.135 311.779 276.252L312.572 278.936C312.605 279.052 312.66 279.16 312.735 279.255C312.809 279.349 312.902 279.428 313.007 279.487C313.112 279.546 313.227 279.583 313.347 279.597C313.466 279.611 313.587 279.602 313.703 279.569Z" fill="#F7F3EF" stroke="#070707" stroke-width="2" stroke-linecap="round" stroke-linejoin="round"/>
<path d="M282.794 283.971L311.698 275.834L313.641 282.736C313.641 282.736 294.782 291.145 282.794 283.971Z" fill="#F7F3EF" stroke="#070707" stroke-width="2" stroke-linecap="round" stroke-linejoin="round"/>
<path d="M357.589 283.94C362.713 283.94 366.867 280.146 366.867 275.466C366.867 270.786 362.713 266.992 357.589 266.992C352.465 266.992 348.311 270.786 348.311 275.466C348.311 280.146 352.465 283.94 357.589 283.94Z" fill="#F7F3EF" stroke="#070707" stroke-width="2" stroke-linecap="round" stroke-linejoin="round"/>
<path d="M355.864 283.553C359.883 283.553 363.141 280.214 363.141 276.095C363.141 271.976 359.883 268.637 355.864 268.637C351.844 268.637 348.586 271.976 348.586 276.095C348.586 280.214 351.844 283.553 355.864 283.553Z" fill="#F7F3EF" stroke="#070707" stroke-width="2" stroke-linecap="round" stroke-linejoin="round"/>
<path d="M356.849 273.633C356.849 274.151 355.864 275.55 355.864 275.55C355.864 275.55 354.883 274.143 354.883 273.633C354.899 273.383 355.009 273.148 355.192 272.976C355.374 272.805 355.615 272.709 355.866 272.709C356.117 272.709 356.358 272.805 356.54 272.976C356.723 273.148 356.833 273.383 356.849 273.633Z" fill="#F7F3EF" stroke="#070707" stroke-width="2" stroke-linecap="round" stroke-linejoin="round"/>
<path d="M354.883 278.557C354.883 278.039 355.864 276.64 355.864 276.64C355.864 276.64 356.849 278.043 356.849 278.557C356.833 278.807 356.723 279.042 356.54 279.214C356.358 279.385 356.116 279.481 355.866 279.481C355.615 279.481 355.374 279.385 355.191 279.214C355.009 279.042 354.898 278.807 354.883 278.557Z" fill="#F7F3EF" stroke="#070707" stroke-width="2" stroke-linecap="round" stroke-linejoin="round"/>
<path d="M353.286 275.155C353.826 275.155 355.301 276.095 355.301 276.095C355.301 276.095 353.826 277.034 353.286 277.034C353.037 277.034 352.798 276.935 352.622 276.759C352.446 276.583 352.347 276.344 352.347 276.095C352.347 275.846 352.446 275.607 352.622 275.43C352.798 275.254 353.037 275.155 353.286 275.155Z" fill="#F7F3EF" stroke="#070707" stroke-width="2" stroke-linecap="round" stroke-linejoin="round"/>
<path d="M358.447 277.034C357.903 277.034 356.432 276.095 356.432 276.095C356.432 276.095 357.903 275.155 358.447 275.155C358.696 275.155 358.935 275.254 359.111 275.431C359.287 275.607 359.386 275.846 359.386 276.095C359.386 276.344 359.287 276.583 359.111 276.759C358.935 276.935 358.696 277.034 358.447 277.034Z" fill="#F7F3EF" stroke="#070707" stroke-width="2" stroke-linecap="round" stroke-linejoin="round"/>
<path d="M351.121 282.455C355.132 280.022 356.779 275.401 354.799 272.132C352.818 268.863 347.961 268.185 343.95 270.617C339.939 273.05 338.293 277.671 340.273 280.94C342.253 284.209 347.11 284.887 351.121 282.455Z" fill="#F7F3EF" stroke="#070707" stroke-width="2" stroke-linecap="round" stroke-linejoin="round"/>
<path d="M350.426 281.886C353.824 279.436 354.952 275.19 352.944 272.404C350.937 269.617 346.555 269.344 343.157 271.795C339.759 274.245 338.631 278.49 340.638 281.277C342.646 284.064 347.028 284.336 350.426 281.886Z" fill="#F7F3EF" stroke="#070707" stroke-width="2" stroke-linecap="round" stroke-linejoin="round"/>
<path d="M348.18 274.656C348.088 275.124 346.884 276.39 346.884 276.39C346.884 276.39 346.187 275.124 346.279 274.656C346.346 274.411 346.492 274.195 346.694 274.042C346.897 273.889 347.144 273.807 347.398 273.809C347.509 273.797 347.622 273.811 347.727 273.85C347.832 273.89 347.926 273.953 348.002 274.035C348.079 274.118 348.134 274.217 348.165 274.325C348.196 274.433 348.201 274.546 348.18 274.656Z" fill="#F7F3EF" stroke="#070707" stroke-width="2" stroke-linecap="round" stroke-linejoin="round"/>
<path d="M345.402 279.093C345.494 278.625 346.693 277.359 346.693 277.359C346.693 277.359 347.395 278.625 347.303 279.093C347.235 279.337 347.089 279.552 346.886 279.705C346.684 279.857 346.437 279.938 346.183 279.936C346.072 279.948 345.96 279.934 345.855 279.895C345.751 279.856 345.657 279.793 345.581 279.711C345.505 279.629 345.449 279.53 345.418 279.423C345.387 279.316 345.381 279.202 345.402 279.093Z" fill="#F7F3EF" stroke="#070707" stroke-width="2" stroke-linecap="round" stroke-linejoin="round"/>
<path d="M344.467 276.029C344.992 276.029 346.245 276.873 346.245 276.873C346.245 276.873 344.658 277.72 344.133 277.72C344.023 277.73 343.912 277.714 343.809 277.673C343.706 277.633 343.614 277.569 343.54 277.487C343.466 277.405 343.411 277.307 343.381 277.2C343.351 277.094 343.346 276.982 343.367 276.873C343.434 276.632 343.577 276.419 343.776 276.267C343.974 276.114 344.217 276.031 344.467 276.029Z" fill="#F7F3EF" stroke="#070707" stroke-width="2" stroke-linecap="round" stroke-linejoin="round"/>
<path d="M349.115 277.72C348.59 277.72 347.337 276.873 347.337 276.873C347.337 276.873 348.924 276.029 349.449 276.029C349.558 276.02 349.669 276.036 349.772 276.076C349.874 276.116 349.966 276.179 350.04 276.261C350.115 276.343 350.169 276.44 350.199 276.546C350.23 276.652 350.235 276.764 350.215 276.873C350.149 277.114 350.006 277.328 349.807 277.481C349.609 277.634 349.366 277.718 349.115 277.72Z" fill="#F7F3EF" stroke="#070707" stroke-width="2" stroke-linecap="round" stroke-linejoin="round"/>
<path d="M343.831 283.35C347.881 281.959 350.325 278.385 349.29 275.366C348.255 272.348 344.132 271.028 340.082 272.419C336.032 273.809 333.588 277.383 334.624 280.402C335.659 283.42 339.781 284.74 343.831 283.35Z" fill="#F7F3EF" stroke="#070707" stroke-width="2" stroke-linecap="round" stroke-linejoin="round"/>
<path d="M343.156 283.065C346.689 281.671 348.693 278.363 347.634 275.676C346.574 272.989 342.852 271.941 339.32 273.335C335.787 274.729 333.783 278.038 334.842 280.725C335.902 283.412 339.624 284.46 343.156 283.065Z" fill="#F7F3EF" stroke="#070707" stroke-width="2" stroke-linecap="round" stroke-linejoin="round"/>
<path d="M342.546 276.367C342.458 276.751 341.335 277.782 341.335 277.782C341.335 277.782 340.684 276.751 340.772 276.367C340.85 276.156 340.993 275.976 341.181 275.852C341.368 275.728 341.59 275.667 341.814 275.677C342.305 275.692 342.631 275.987 342.546 276.367Z" fill="#F7F3EF" stroke="#070707" stroke-width="2" stroke-linecap="round" stroke-linejoin="round"/>
<path d="M339.949 279.987C340.037 279.604 341.16 278.572 341.16 278.572C341.16 278.572 341.811 279.604 341.723 279.987C341.645 280.197 341.501 280.377 341.314 280.501C341.127 280.624 340.905 280.684 340.681 280.674C340.19 280.677 339.865 280.367 339.949 279.987Z" fill="#F7F3EF" stroke="#070707" stroke-width="2" stroke-linecap="round" stroke-linejoin="round"/>
<path d="M339.078 277.487C339.565 277.487 340.738 278.177 340.738 278.177C340.738 278.177 339.254 278.868 338.764 278.868C338.273 278.868 337.948 278.557 338.032 278.177C338.111 277.967 338.255 277.787 338.443 277.663C338.631 277.539 338.853 277.478 339.078 277.487Z" fill="#F7F3EF" stroke="#070707" stroke-width="2" stroke-linecap="round" stroke-linejoin="round"/>
<path d="M343.417 278.868C342.931 278.868 341.758 278.177 341.758 278.177C341.758 278.177 343.241 277.487 343.732 277.487C344.222 277.487 344.548 277.798 344.463 278.177C344.384 278.388 344.24 278.568 344.052 278.692C343.864 278.816 343.642 278.877 343.417 278.868Z" fill="#F7F3EF" stroke="#070707" stroke-width="2" stroke-linecap="round" stroke-linejoin="round"/>
<path d="M144.111 190.799H149.626C150.099 190.799 150.552 190.987 150.886 191.321C151.22 191.655 151.408 192.109 151.408 192.582V204.407H142.329V192.582C142.329 192.109 142.517 191.655 142.851 191.321C143.185 190.987 143.639 190.799 144.111 190.799Z" fill="#F7F3EF" stroke="#070707" stroke-width="2" stroke-linecap="round" stroke-linejoin="round"/>
<path d="M148.832 204.407H150.978C153.713 204.407 156.337 205.494 158.271 207.429C160.205 209.364 161.291 211.989 161.291 214.726V272.46C161.291 273.274 160.968 274.054 160.393 274.629C159.818 275.204 159.038 275.528 158.225 275.528H141.604C140.791 275.528 140.011 275.204 139.436 274.629C138.861 274.054 138.538 273.274 138.538 272.46V214.726C138.538 211.992 139.622 209.371 141.552 207.436C143.482 205.502 146.1 204.412 148.832 204.407Z" fill="#1C0E0C"/>
<path d="M143.115 204.407H145.261C147.996 204.407 150.619 205.494 152.553 207.429C154.487 209.364 155.574 211.989 155.574 214.726V272.46C155.574 273.274 155.251 274.054 154.676 274.629C154.101 275.204 153.321 275.528 152.508 275.528H135.902C135.089 275.528 134.309 275.204 133.734 274.629C133.159 274.054 132.836 273.274 132.836 272.46V214.726C132.836 211.995 133.918 209.376 135.844 207.442C137.771 205.507 140.385 204.416 143.115 204.407Z" fill="#F7F3EF" stroke="#070707" stroke-width="2" stroke-linecap="round" stroke-linejoin="round"/>
<path d="M159.912 215.685V270.789C159.912 273.089 158.643 274.366 156.535 274.366H137.756C135.649 274.366 134.384 272.944 134.384 270.639V215.685H159.912Z" fill="#1C0E0C"/>
<path d="M150.775 232.671H137.511C136.356 232.671 135.419 233.608 135.419 234.764V243.48C135.419 244.636 136.356 245.574 137.511 245.574H150.775C151.931 245.574 152.868 244.636 152.868 243.48V234.764C152.868 233.608 151.931 232.671 150.775 232.671Z" fill="#F7F3EF" stroke="#070707" stroke-width="2" stroke-linecap="round" stroke-linejoin="round"/>
<path d="M143.115 204.407H145.261C147.996 204.407 150.619 205.494 152.553 207.429C154.487 209.364 155.574 211.989 155.574 214.726V272.46C155.574 273.274 155.251 274.054 154.676 274.629C154.101 275.204 153.321 275.528 152.508 275.528H135.902C135.089 275.528 134.309 275.204 133.734 274.629C133.159 274.054 132.836 273.274 132.836 272.46V214.726C132.836 211.995 133.918 209.376 135.844 207.442C137.771 205.507 140.385 204.416 143.115 204.407Z" fill="#F7F3EF" stroke="#070707" stroke-width="2" stroke-linecap="round" stroke-linejoin="round"/>
<path d="M65.5845 258.885C66.3005 255.413 64.068 252.018 60.598 251.302C57.1279 250.585 53.7344 252.819 53.0183 256.291C52.3022 259.762 54.5347 263.158 58.0048 263.874C61.4748 264.591 64.8684 262.357 65.5845 258.885Z" fill="#F7F3EF" stroke="#070707" stroke-width="2" stroke-linecap="round" stroke-linejoin="round"/>
<path d="M64.742 257.82C65.477 254.244 63.1753 250.749 59.6011 250.014C56.0269 249.279 52.5336 251.581 51.7986 255.157C51.0636 258.734 53.3653 262.229 56.9395 262.964C60.5137 263.699 64.007 261.396 64.742 257.82Z" fill="#F7F3EF" stroke="#070707" stroke-width="2" stroke-linecap="round" stroke-linejoin="round"/>
<path d="M57.5292 261.865H63.8527C65.2757 261.865 66.6404 262.431 67.6466 263.437C68.6528 264.444 69.2181 265.81 69.2181 267.233V279.795C69.2181 280.228 69.0461 280.643 68.74 280.95C68.4338 281.256 68.0185 281.428 67.5855 281.428H53.7811C53.3481 281.428 52.9328 281.256 52.6267 280.95C52.3205 280.643 52.1485 280.228 52.1485 279.795V267.256C52.1455 266.548 52.2825 265.846 52.5517 265.191C52.821 264.536 53.2171 263.941 53.7172 263.44C54.2174 262.939 54.8117 262.542 55.4659 262.271C56.1202 262.001 56.8214 261.863 57.5292 261.865Z" fill="#F7F3EF" stroke="#070707" stroke-width="2" stroke-linecap="round" stroke-linejoin="round"/>
<path d="M57.3827 261.865H63.7216C65.1446 261.865 66.5093 262.431 67.5155 263.437C68.5217 264.444 69.087 265.81 69.087 267.233V279.795C69.087 280.228 68.915 280.643 68.6088 280.95C68.3026 281.256 67.8874 281.428 67.4544 281.428H53.6346C53.2016 281.428 52.7864 281.256 52.4802 280.95C52.174 280.643 52.002 280.228 52.002 279.795V267.256C51.999 266.548 52.136 265.846 52.4053 265.191C52.6745 264.536 53.0706 263.941 53.5708 263.44C54.0709 262.939 54.6652 262.542 55.3194 262.271C55.9737 262.001 56.6749 261.863 57.3827 261.865Z" fill="#1C0E0C"/>
<path d="M52.8114 261.865H59.1503C60.5733 261.865 61.938 262.431 62.9442 263.437C63.9504 264.444 64.5157 265.81 64.5157 267.233V279.795C64.5157 280.228 64.3437 280.643 64.0375 280.95C63.7313 281.256 63.3161 281.428 62.8831 281.428H49.0633C48.6303 281.428 48.2151 281.256 47.9089 280.95C47.6027 280.643 47.4307 280.228 47.4307 279.795V267.256C47.4277 266.548 47.5647 265.846 47.834 265.191C48.1032 264.536 48.4993 263.941 48.9995 263.44C49.4996 262.939 50.0939 262.542 50.7482 262.271C51.4024 262.001 52.1036 261.863 52.8114 261.865Z" fill="#F7F3EF" stroke="#070707" stroke-width="2" stroke-linecap="round" stroke-linejoin="round"/>
<path d="M61.0854 268.993H52.746C52.0221 268.993 51.4353 269.58 51.4353 270.305V274.526C51.4353 275.25 52.0221 275.838 52.746 275.838H61.0854C61.8092 275.838 62.3961 275.25 62.3961 274.526V270.305C62.3961 269.58 61.8092 268.993 61.0854 268.993Z" fill="#F7F3EF" stroke="#070707" stroke-width="2" stroke-linecap="round" stroke-linejoin="round"/>
<path d="M60.0543 268.107H51.715C50.9911 268.107 50.4043 268.694 50.4043 269.419V273.64C50.4043 274.365 50.9911 274.952 51.715 274.952H60.0543C60.7782 274.952 61.365 274.365 61.365 273.64V269.419C61.365 268.694 60.7782 268.107 60.0543 268.107Z" fill="#F7F3EF" stroke="#070707" stroke-width="2" stroke-linecap="round" stroke-linejoin="round"/>
<path d="M92.574 257.007C95.4361 254.917 96.0632 250.902 93.9746 248.038C91.8859 245.175 87.8726 244.547 85.0104 246.637C82.1483 248.727 81.5213 252.742 83.6099 255.606C85.6985 258.469 89.7119 259.097 92.574 257.007Z" fill="#F7F3EF" stroke="#070707" stroke-width="2" stroke-linecap="round" stroke-linejoin="round"/>
<path d="M94.4094 251.532C94.94 247.92 92.4434 244.562 88.8331 244.031C85.2229 243.5 81.8662 245.998 81.3356 249.61C80.8051 253.222 83.3017 256.581 86.9119 257.112C90.5221 257.642 93.8789 255.144 94.4094 251.532Z" fill="#F7F3EF" stroke="#070707" stroke-width="2" stroke-linecap="round" stroke-linejoin="round"/>
<path d="M86.9833 255.965H93.3222C94.7452 255.965 96.1099 256.53 97.1161 257.537C98.1223 258.544 98.6876 259.909 98.6876 261.333V273.895C98.6876 274.328 98.5156 274.743 98.2094 275.05C97.9032 275.356 97.488 275.528 97.055 275.528H83.2391C82.8061 275.528 82.3908 275.356 82.0846 275.05C81.7785 274.743 81.6064 274.328 81.6064 273.895V261.333C81.6064 260.627 81.7456 259.928 82.016 259.276C82.2863 258.624 82.6826 258.032 83.182 257.533C83.6814 257.034 84.2743 256.639 84.9266 256.37C85.5789 256.101 86.2778 255.963 86.9833 255.965Z" fill="#F7F3EF" stroke="#070707" stroke-width="2" stroke-linecap="round" stroke-linejoin="round"/>
<path d="M86.9833 255.965H93.3222C94.7452 255.965 96.1099 256.53 97.1161 257.537C98.1223 258.544 98.6876 259.909 98.6876 261.333V273.895C98.6876 274.328 98.5156 274.743 98.2094 275.05C97.9032 275.356 97.488 275.528 97.055 275.528H83.2391C82.8061 275.528 82.3908 275.356 82.0846 275.05C81.7785 274.743 81.6064 274.328 81.6064 273.895V261.333C81.6064 260.627 81.7456 259.928 82.016 259.276C82.2863 258.624 82.6826 258.032 83.182 257.533C83.6814 257.034 84.2743 256.639 84.9266 256.37C85.5789 256.101 86.2778 255.963 86.9833 255.965Z" fill="#1C0E0C"/>
<path d="M82.4159 255.965H88.7624C90.1854 255.965 91.5501 256.53 92.5563 257.537C93.5625 258.544 94.1278 259.909 94.1278 261.333V273.894C94.1278 274.328 93.9558 274.743 93.6496 275.049C93.3434 275.356 92.9282 275.528 92.4952 275.528H78.6678C78.2348 275.528 77.8195 275.356 77.5133 275.049C77.2072 274.743 77.0352 274.328 77.0352 273.894V261.333C77.0352 260.627 77.1744 259.927 77.445 259.275C77.7156 258.623 78.1122 258.03 78.6121 257.532C79.1119 257.033 79.7052 256.638 80.3579 256.369C81.0107 256.1 81.71 255.963 82.4159 255.965Z" fill="#F7F3EF" stroke="#070707" stroke-width="2" stroke-linecap="round" stroke-linejoin="round"/>
<path d="M90.7126 263.173H82.3732C81.6493 263.173 81.0625 263.76 81.0625 264.484V268.706C81.0625 269.43 81.6493 270.017 82.3732 270.017H90.7126C91.4364 270.017 92.0232 269.43 92.0232 268.706V264.484C92.0232 263.76 91.4364 263.173 90.7126 263.173Z" fill="#F7F3EF" stroke="#070707" stroke-width="2" stroke-linecap="round" stroke-linejoin="round"/>
<path d="M89.6784 262.288H81.339C80.6151 262.288 80.0283 262.875 80.0283 263.599V267.821C80.0283 268.545 80.6151 269.132 81.339 269.132H89.6784C90.4023 269.132 90.9891 268.545 90.9891 267.821V263.599C90.9891 262.875 90.4023 262.288 89.6784 262.288Z" fill="#F7F3EF" stroke="#070707" stroke-width="2" stroke-linecap="round" stroke-linejoin="round"/>
<path d="M384.56 119.418V167.627H423.497V122.861C423.497 120.944 421.539 119.41 419.117 119.41L384.56 119.418Z" fill="#1C0E0C"/>
<path d="M360.929 104.31H370.813V109.713L360.929 108.045V104.31Z" fill="#F7F3EF" stroke="#070707" stroke-width="2" stroke-linecap="round" stroke-linejoin="round"/>
<path d="M370.667 121.117H528.053" stroke="#070707" stroke-width="2" stroke-linecap="round" stroke-linejoin="round"/>
<path d="M545.797 94.4216H353.218V104.314H545.797V94.4216Z" fill="#F7F3EF" stroke="#070707" stroke-width="2" stroke-linecap="round" stroke-linejoin="round"/>
<path d="M370.816 104.31H360.929V121.116H370.816V104.31Z" fill="#F7F3EF" stroke="#070707" stroke-width="2" stroke-linecap="round" stroke-linejoin="round"/>
<path d="M528.353 104.31H538.236V109.713L528.353 108.045V104.31Z" fill="#F7F3EF" stroke="#070707" stroke-width="2" stroke-linecap="round" stroke-linejoin="round"/>
<path d="M538.235 104.31H528.348V121.116H538.235V104.31Z" fill="#F7F3EF" stroke="#070707" stroke-width="2" stroke-linecap="round" stroke-linejoin="round"/>
<path d="M419.147 119.418C416.602 119.418 414.548 120.951 414.548 122.868V157.056H378.366V122.861C378.366 120.944 380.424 119.41 382.965 119.41L419.147 119.418Z" fill="#F7F3EF" stroke="#070707" stroke-width="2" stroke-linecap="round" stroke-linejoin="round"/>
<path d="M408.261 85.2992C419.562 73.9922 419.562 55.6598 408.261 44.3528C396.96 33.0457 378.637 33.0457 367.336 44.3528C356.035 55.6598 356.035 73.9922 367.336 85.2992C378.637 96.6063 396.96 96.6063 408.261 85.2992Z" fill="#F7F3EF" stroke="#070707" stroke-width="2" stroke-linecap="round" stroke-linejoin="round"/>
<path d="M402.961 70.3399C406.001 61.964 401.68 52.708 393.308 49.666C384.936 46.6241 375.685 50.9481 372.645 59.324C369.604 67.6999 373.926 76.9559 382.298 79.9979C390.669 83.0398 399.921 78.7158 402.961 70.3399Z" fill="#F7F3EF" stroke="#070707" stroke-width="2" stroke-linecap="round" stroke-linejoin="round"/>
<path d="M434.036 75.0915H472.564C472.563 75.8874 472.246 76.6505 471.684 77.2133C471.121 77.7761 470.359 78.0928 469.563 78.0938H437.033C436.238 78.0928 435.476 77.776 434.914 77.2131C434.352 76.6501 434.036 75.8871 434.036 75.0915Z" fill="#F7F3EF" stroke="#070707" stroke-width="2" stroke-linecap="round" stroke-linejoin="round"/>
<path d="M430.487 81.7585H476.093C476.093 82.7012 475.719 83.6053 475.053 84.2719C474.386 84.9385 473.483 85.313 472.541 85.313H434.04C433.098 85.313 432.194 84.9385 431.528 84.2719C430.862 83.6053 430.487 82.7012 430.487 81.7585Z" fill="#F7F3EF" stroke="#070707" stroke-width="2" stroke-linecap="round" stroke-linejoin="round"/>
<path d="M425.632 89.4702H480.972C480.972 90.6133 480.518 91.7095 479.71 92.5178C478.902 93.326 477.807 93.7801 476.664 93.7801H429.935C428.794 93.7781 427.7 93.3232 426.893 92.5153C426.086 91.7074 425.633 90.6123 425.632 89.4702Z" fill="#F7F3EF" stroke="#070707" stroke-width="2" stroke-linecap="round" stroke-linejoin="round"/>
<path d="M428.717 71.9852H477.883C478.004 71.9875 478.121 72.0318 478.212 72.1105C478.304 72.1892 478.366 72.2975 478.387 72.4167C478.408 72.5359 478.386 72.6587 478.327 72.7639C478.267 72.8692 478.173 72.9504 478.06 72.9936L472.847 74.9108H433.757L428.541 72.9936C428.428 72.9504 428.333 72.8692 428.274 72.7639C428.214 72.6587 428.193 72.5359 428.214 72.4167C428.234 72.2975 428.296 72.1892 428.388 72.1105C428.48 72.0318 428.596 71.9875 428.717 71.9852Z" fill="#F7F3EF" stroke="#070707" stroke-width="2" stroke-linecap="round" stroke-linejoin="round"/>
<path d="M433.753 74.896H472.843C472.838 75.7023 472.516 76.4741 471.947 77.0446C471.377 77.6151 470.606 77.9383 469.8 77.9443H436.792C436.392 77.9443 435.996 77.8654 435.626 77.7122C435.257 77.559 434.921 77.3344 434.639 77.0513C434.356 76.7681 434.132 76.4321 433.979 76.0623C433.827 75.6924 433.748 75.2961 433.749 74.896H433.753Z" fill="#F7F3EF" stroke="#070707" stroke-width="2" stroke-linecap="round" stroke-linejoin="round"/>
<path d="M424.187 77.9753H482.409C482.554 77.976 482.693 78.0275 482.804 78.1208C482.914 78.214 482.989 78.3431 483.014 78.4854C483.039 78.6278 483.013 78.7745 482.941 78.8999C482.869 79.0253 482.756 79.1215 482.62 79.1716L476.446 81.4262H430.15L423.976 79.1716C423.841 79.1215 423.727 79.0253 423.655 78.8999C423.583 78.7745 423.558 78.6278 423.583 78.4854C423.608 78.3431 423.682 78.214 423.792 78.1208C423.903 78.0275 424.042 77.976 424.187 77.9753Z" fill="#F7F3EF" stroke="#070707" stroke-width="2" stroke-linecap="round" stroke-linejoin="round"/>
<path d="M430.15 81.4255H476.446C476.446 82.3814 476.066 83.2982 475.391 83.9741C474.715 84.6501 473.799 85.0298 472.844 85.0298H433.753C433.279 85.0303 432.811 84.9375 432.373 84.7566C431.935 84.5757 431.538 84.3102 431.203 83.9755C430.868 83.6407 430.602 83.2432 430.421 82.8057C430.24 82.3681 430.146 81.8991 430.146 81.4255H430.15Z" fill="#F7F3EF" stroke="#070707" stroke-width="2" stroke-linecap="round" stroke-linejoin="round"/>
<path d="M417.99 85.0642H488.61C488.786 85.0618 488.958 85.1222 489.094 85.2346C489.23 85.347 489.321 85.5041 489.352 85.6779C489.383 85.8516 489.351 86.0307 489.262 86.1831C489.173 86.3355 489.033 86.4513 488.867 86.5098L481.378 89.2476H425.222L417.733 86.5098C417.567 86.4513 417.427 86.3355 417.338 86.1831C417.249 86.0307 417.217 85.8516 417.248 85.6779C417.279 85.5041 417.37 85.347 417.506 85.2346C417.642 85.1222 417.814 85.0618 417.99 85.0642Z" fill="#F7F3EF" stroke="#070707" stroke-width="2" stroke-linecap="round" stroke-linejoin="round"/>
<path d="M425.221 89.2476H481.378C481.378 89.822 481.265 90.3907 481.045 90.9213C480.825 91.4519 480.503 91.9339 480.097 92.3399C479.691 92.7459 479.209 93.0677 478.678 93.2872C478.148 93.5066 477.579 93.6193 477.005 93.6188H429.594C429.02 93.6193 428.452 93.5066 427.921 93.2872C427.391 93.0677 426.908 92.7459 426.502 92.3399C426.096 91.9339 425.774 91.4519 425.554 90.9213C425.335 90.3907 425.221 89.822 425.221 89.2476Z" fill="#F7F3EF" stroke="#070707" stroke-width="2" stroke-linecap="round" stroke-linejoin="round"/>
<path d="M444.909 123.541L457.38 136.056C459.197 137.878 459.101 140.922 457.162 142.851L452.421 147.582C450.486 149.5 447.439 149.603 445.63 147.782L433.155 135.266L444.909 123.541Z" fill="#F7F3EF" stroke="#070707" stroke-width="2" stroke-linecap="round" stroke-linejoin="round"/>
<path d="M447.424 126.063C449.627 123.862 453.088 123.762 455.158 125.837L457.676 128.364C459.741 130.438 459.63 133.901 457.426 136.102" stroke="#070707" stroke-width="2" stroke-linecap="round" stroke-linejoin="round"/>
<path d="M452.697 121.117H451.221V126.163H452.697V121.117Z" fill="#F7F3EF" stroke="#070707" stroke-width="2" stroke-linecap="round" stroke-linejoin="round"/>
<path d="M478.619 123.541L491.094 136.056C492.907 137.878 492.811 140.922 490.875 142.851L486.131 147.582C484.215 149.5 481.149 149.603 479.34 147.782L466.865 135.266L478.619 123.541Z" fill="#F7F3EF" stroke="#070707" stroke-width="2" stroke-linecap="round" stroke-linejoin="round"/>
<path d="M478.619 123.541L491.094 136.056C492.907 137.878 492.811 140.922 490.875 142.851L486.131 147.582C484.215 149.5 481.149 149.603 479.34 147.782L466.865 135.266L478.619 123.541Z" fill="#F7F3EF" stroke="#070707" stroke-width="2" stroke-linecap="round" stroke-linejoin="round"/>
<path d="M481.134 126.063C483.337 123.862 486.802 123.762 488.868 125.837L491.386 128.364C493.451 130.438 493.344 133.901 491.136 136.102" stroke="#070707" stroke-width="2" stroke-linecap="round" stroke-linejoin="round"/>
<path d="M472.825 134.433C472.996 134.605 473.113 134.824 473.16 135.062C473.207 135.3 473.182 135.546 473.089 135.77C472.997 135.994 472.839 136.186 472.638 136.321C472.436 136.455 472.199 136.527 471.957 136.527C471.714 136.527 471.477 136.455 471.276 136.321C471.074 136.186 470.917 135.994 470.824 135.77C470.731 135.546 470.706 135.3 470.754 135.062C470.801 134.824 470.917 134.605 471.089 134.433C471.202 134.319 471.338 134.229 471.487 134.167C471.636 134.105 471.795 134.073 471.957 134.073C472.118 134.073 472.278 134.105 472.427 134.167C472.575 134.229 472.711 134.319 472.825 134.433Z" fill="#F7F3EF" stroke="#070707" stroke-width="2" stroke-linecap="round" stroke-linejoin="round"/>
<path d="M479.47 127.785C479.642 127.957 479.759 128.176 479.807 128.415C479.854 128.654 479.83 128.901 479.737 129.126C479.644 129.351 479.486 129.543 479.284 129.678C479.081 129.814 478.844 129.886 478.6 129.886C478.357 129.886 478.119 129.814 477.917 129.678C477.715 129.543 477.557 129.351 477.464 129.126C477.371 128.901 477.346 128.654 477.394 128.415C477.441 128.176 477.558 127.957 477.73 127.785C477.844 127.67 477.98 127.579 478.129 127.517C478.279 127.455 478.439 127.423 478.6 127.423C478.762 127.423 478.922 127.455 479.071 127.517C479.221 127.579 479.356 127.67 479.47 127.785Z" fill="#F7F3EF" stroke="#070707" stroke-width="2" stroke-linecap="round" stroke-linejoin="round"/>
<path d="M476.147 131.11C476.318 131.282 476.435 131.5 476.482 131.738C476.529 131.976 476.505 132.223 476.412 132.447C476.319 132.671 476.162 132.862 475.96 132.997C475.759 133.132 475.522 133.204 475.279 133.204C475.037 133.204 474.8 133.132 474.598 132.997C474.396 132.862 474.239 132.671 474.146 132.447C474.053 132.223 474.029 131.976 474.076 131.738C474.123 131.5 474.24 131.282 474.411 131.11C474.525 130.996 474.66 130.905 474.809 130.843C474.958 130.782 475.118 130.75 475.279 130.75C475.44 130.75 475.6 130.782 475.749 130.843C475.898 130.905 476.033 130.996 476.147 131.11Z" fill="#F7F3EF" stroke="#070707" stroke-width="2" stroke-linecap="round" stroke-linejoin="round"/>
<path d="M473.58 139.012C473.751 139.184 473.868 139.403 473.915 139.641C473.962 139.879 473.937 140.125 473.845 140.349C473.752 140.573 473.594 140.765 473.393 140.899C473.191 141.034 472.954 141.106 472.712 141.106C472.469 141.106 472.232 141.034 472.031 140.899C471.829 140.765 471.672 140.573 471.579 140.349C471.486 140.125 471.462 139.879 471.509 139.641C471.556 139.403 471.672 139.184 471.844 139.012C471.958 138.898 472.093 138.807 472.242 138.746C472.391 138.684 472.55 138.652 472.712 138.652C472.873 138.652 473.033 138.684 473.182 138.746C473.331 138.807 473.466 138.898 473.58 139.012Z" fill="#F7F3EF" stroke="#070707" stroke-width="2" stroke-linecap="round" stroke-linejoin="round"/>
<path d="M480.559 132.034C480.731 132.205 480.847 132.424 480.894 132.662C480.941 132.9 480.917 133.147 480.824 133.371C480.731 133.595 480.574 133.786 480.372 133.921C480.171 134.056 479.934 134.128 479.691 134.128C479.449 134.128 479.212 134.056 479.01 133.921C478.809 133.786 478.651 133.595 478.558 133.371C478.466 133.147 478.441 132.9 478.488 132.662C478.535 132.424 478.652 132.205 478.823 132.034C478.937 131.92 479.072 131.829 479.221 131.767C479.37 131.705 479.53 131.674 479.691 131.674C479.852 131.674 480.012 131.705 480.161 131.767C480.31 131.829 480.445 131.92 480.559 132.034Z" fill="#F7F3EF" stroke="#070707" stroke-width="2" stroke-linecap="round" stroke-linejoin="round"/>
<path d="M484.047 128.54C484.218 128.712 484.334 128.931 484.382 129.169C484.429 129.406 484.404 129.653 484.311 129.877C484.218 130.101 484.061 130.293 483.86 130.427C483.658 130.562 483.421 130.634 483.179 130.634C482.936 130.634 482.699 130.562 482.497 130.427C482.296 130.293 482.139 130.101 482.046 129.877C481.953 129.653 481.928 129.406 481.976 129.169C482.023 128.931 482.139 128.712 482.31 128.54C482.424 128.426 482.559 128.335 482.708 128.272C482.857 128.21 483.017 128.178 483.179 128.178C483.34 128.178 483.5 128.21 483.649 128.272C483.798 128.335 483.933 128.426 484.047 128.54Z" fill="#F7F3EF" stroke="#070707" stroke-width="2" stroke-linecap="round" stroke-linejoin="round"/>
<path d="M477.071 135.523C477.242 135.695 477.359 135.913 477.406 136.151C477.453 136.389 477.429 136.636 477.336 136.86C477.243 137.084 477.086 137.275 476.884 137.41C476.682 137.545 476.445 137.617 476.203 137.617C475.96 137.617 475.723 137.545 475.522 137.41C475.32 137.275 475.163 137.084 475.07 136.86C474.977 136.636 474.953 136.389 475 136.151C475.047 135.913 475.164 135.695 475.335 135.523C475.449 135.409 475.584 135.318 475.733 135.256C475.882 135.195 476.042 135.163 476.203 135.163C476.364 135.163 476.524 135.195 476.673 135.256C476.822 135.318 476.957 135.409 477.071 135.523Z" fill="#F7F3EF" stroke="#070707" stroke-width="2" stroke-linecap="round" stroke-linejoin="round"/>
<path d="M478.159 139.768C478.33 139.94 478.447 140.158 478.494 140.396C478.541 140.634 478.517 140.881 478.424 141.105C478.331 141.329 478.174 141.521 477.972 141.655C477.77 141.79 477.533 141.862 477.291 141.862C477.048 141.862 476.811 141.79 476.61 141.655C476.408 141.521 476.251 141.329 476.158 141.105C476.065 140.881 476.041 140.634 476.088 140.396C476.135 140.158 476.252 139.94 476.423 139.768C476.537 139.654 476.672 139.563 476.821 139.502C476.97 139.44 477.13 139.408 477.291 139.408C477.452 139.408 477.612 139.44 477.761 139.502C477.91 139.563 478.045 139.654 478.159 139.768Z" fill="#F7F3EF" stroke="#070707" stroke-width="2" stroke-linecap="round" stroke-linejoin="round"/>
<path d="M484.801 133.123C484.973 133.294 485.089 133.513 485.136 133.751C485.184 133.989 485.159 134.235 485.066 134.46C484.973 134.684 484.816 134.875 484.614 135.01C484.413 135.145 484.176 135.216 483.933 135.216C483.691 135.216 483.454 135.145 483.252 135.01C483.051 134.875 482.894 134.684 482.801 134.46C482.708 134.235 482.683 133.989 482.73 133.751C482.778 133.513 482.894 133.294 483.065 133.123C483.179 133.008 483.315 132.918 483.464 132.856C483.612 132.794 483.772 132.762 483.933 132.762C484.095 132.762 484.254 132.794 484.403 132.856C484.552 132.918 484.688 133.008 484.801 133.123Z" fill="#F7F3EF" stroke="#070707" stroke-width="2" stroke-linecap="round" stroke-linejoin="round"/>
<path d="M481.482 136.447C481.653 136.619 481.77 136.837 481.817 137.075C481.864 137.313 481.84 137.56 481.747 137.784C481.654 138.008 481.497 138.199 481.295 138.334C481.094 138.469 480.857 138.541 480.614 138.541C480.372 138.541 480.135 138.469 479.933 138.334C479.731 138.199 479.574 138.008 479.481 137.784C479.388 137.56 479.364 137.313 479.411 137.075C479.458 136.837 479.575 136.619 479.746 136.447C479.86 136.333 479.995 136.242 480.144 136.18C480.293 136.118 480.453 136.087 480.614 136.087C480.775 136.087 480.935 136.118 481.084 136.18C481.233 136.242 481.368 136.333 481.482 136.447Z" fill="#F7F3EF" stroke="#070707" stroke-width="2" stroke-linecap="round" stroke-linejoin="round"/>
<path d="M478.903 144.349C479.075 144.521 479.191 144.739 479.238 144.977C479.285 145.215 479.261 145.462 479.168 145.686C479.075 145.91 478.918 146.102 478.716 146.236C478.515 146.371 478.278 146.443 478.035 146.443C477.793 146.443 477.556 146.371 477.354 146.236C477.153 146.102 476.995 145.91 476.902 145.686C476.81 145.462 476.785 145.215 476.832 144.977C476.879 144.739 476.996 144.521 477.167 144.349C477.281 144.235 477.416 144.144 477.565 144.082C477.714 144.021 477.874 143.989 478.035 143.989C478.196 143.989 478.356 144.021 478.505 144.082C478.654 144.144 478.789 144.235 478.903 144.349Z" fill="#F7F3EF" stroke="#070707" stroke-width="2" stroke-linecap="round" stroke-linejoin="round"/>
<path d="M485.023 139.464C485.701 139.464 486.25 138.915 486.25 138.237C486.25 137.56 485.701 137.01 485.023 137.01C484.346 137.01 483.797 137.56 483.797 138.237C483.797 138.915 484.346 139.464 485.023 139.464Z" fill="#F7F3EF" stroke="#070707" stroke-width="2" stroke-linecap="round" stroke-linejoin="round"/>
<path d="M488.514 135.975C489.192 135.975 489.741 135.426 489.741 134.748C489.741 134.07 489.192 133.521 488.514 133.521C487.837 133.521 487.288 134.07 487.288 134.748C487.288 135.426 487.837 135.975 488.514 135.975Z" fill="#F7F3EF" stroke="#070707" stroke-width="2" stroke-linecap="round" stroke-linejoin="round"/>
<path d="M482.402 140.86C482.573 141.032 482.69 141.251 482.737 141.489C482.784 141.727 482.76 141.973 482.667 142.197C482.574 142.421 482.417 142.613 482.215 142.748C482.013 142.882 481.776 142.954 481.534 142.954C481.292 142.954 481.055 142.882 480.853 142.748C480.651 142.613 480.494 142.421 480.401 142.197C480.308 141.973 480.284 141.727 480.331 141.489C480.378 141.251 480.495 141.032 480.666 140.86C480.78 140.746 480.915 140.655 481.064 140.593C481.213 140.531 481.373 140.499 481.534 140.499C481.695 140.499 481.855 140.531 482.004 140.593C482.153 140.655 482.288 140.746 482.402 140.86Z" fill="#F7F3EF" stroke="#070707" stroke-width="2" stroke-linecap="round" stroke-linejoin="round"/>
<path d="M483.503 145.105C483.674 145.277 483.79 145.495 483.838 145.733C483.885 145.971 483.86 146.218 483.767 146.442C483.674 146.666 483.517 146.857 483.316 146.992C483.114 147.127 482.877 147.199 482.635 147.199C482.392 147.199 482.155 147.127 481.954 146.992C481.752 146.857 481.595 146.666 481.502 146.442C481.409 146.218 481.384 145.971 481.432 145.733C481.479 145.495 481.595 145.277 481.767 145.105C481.88 144.991 482.016 144.9 482.165 144.838C482.314 144.777 482.473 144.745 482.635 144.745C482.796 144.745 482.955 144.777 483.104 144.838C483.253 144.9 483.389 144.991 483.503 145.105Z" fill="#F7F3EF" stroke="#070707" stroke-width="2" stroke-linecap="round" stroke-linejoin="round"/>
<path d="M490.135 138.46C490.307 138.631 490.423 138.85 490.47 139.088C490.517 139.326 490.493 139.572 490.4 139.796C490.307 140.021 490.15 140.212 489.948 140.347C489.747 140.481 489.51 140.553 489.267 140.553C489.025 140.553 488.788 140.481 488.586 140.347C488.385 140.212 488.228 140.021 488.135 139.796C488.042 139.572 488.017 139.326 488.064 139.088C488.112 138.85 488.228 138.631 488.399 138.46C488.513 138.345 488.649 138.255 488.798 138.193C488.946 138.131 489.106 138.099 489.267 138.099C489.429 138.099 489.588 138.131 489.737 138.193C489.886 138.255 490.022 138.345 490.135 138.46Z" fill="#F7F3EF" stroke="#070707" stroke-width="2" stroke-linecap="round" stroke-linejoin="round"/>
<path d="M486.817 141.785C486.989 141.957 487.106 142.176 487.154 142.415C487.201 142.654 487.177 142.901 487.084 143.126C486.99 143.351 486.833 143.543 486.63 143.678C486.428 143.814 486.19 143.886 485.947 143.886C485.704 143.886 485.466 143.814 485.264 143.678C485.061 143.543 484.904 143.351 484.81 143.126C484.717 142.901 484.693 142.654 484.74 142.415C484.788 142.176 484.905 141.957 485.077 141.785C485.191 141.67 485.327 141.579 485.476 141.517C485.625 141.455 485.785 141.423 485.947 141.423C486.109 141.423 486.269 141.455 486.418 141.517C486.567 141.579 486.703 141.67 486.817 141.785Z" fill="#F7F3EF" stroke="#070707" stroke-width="2" stroke-linecap="round" stroke-linejoin="round"/>
<path d="M485.993 121.117H484.518V126.163H485.993V121.117Z" fill="#F7F3EF" stroke="#070707" stroke-width="2" stroke-linecap="round" stroke-linejoin="round"/>
<path d="M512.329 123.541L524.804 136.056C526.617 137.878 526.521 140.922 524.585 142.851L519.841 147.582C517.925 149.5 514.859 149.603 513.05 147.782L500.575 135.266L512.329 123.541Z" fill="#F7F3EF" stroke="#070707" stroke-width="2" stroke-linecap="round" stroke-linejoin="round"/>
<path d="M514.843 126.063C517.046 123.862 520.511 123.762 522.577 125.837L525.095 128.364C527.164 130.438 527.053 133.901 524.849 136.102" stroke="#070707" stroke-width="2" stroke-linecap="round" stroke-linejoin="round"/>
<path d="M519.585 121.117H518.109V126.163H519.585V121.117Z" fill="#F7F3EF" stroke="#070707" stroke-width="2" stroke-linecap="round" stroke-linejoin="round"/>
<path d="M529.319 41.9315H525.808C525.181 41.9371 524.56 41.8188 523.979 41.5835C523.397 41.3481 522.869 41.0003 522.422 40.56C521.976 40.1197 521.62 39.5956 521.377 39.0177C521.133 38.4398 521.006 37.8194 521.002 37.1922V36.1723C521.002 35.5577 521.123 34.9491 521.359 34.3816C521.467 34.1124 521.603 33.8554 521.765 33.6147C521.999 33.0468 522.12 32.4385 522.122 31.8241V31.1531C522.102 29.894 521.586 28.6936 520.686 27.8136C519.786 26.9337 518.574 26.4457 517.316 26.4559H516.633C516.008 26.4504 515.387 26.5681 514.807 26.8025C514.227 27.0369 513.699 27.3834 513.253 27.822C512.806 28.2607 512.451 28.783 512.206 29.3591C511.962 29.9353 511.833 30.554 511.828 31.1799V31.8509C511.827 32.4655 511.948 33.0741 512.184 33.6416C512.344 33.8831 512.481 34.14 512.59 34.4085C512.826 34.9759 512.947 35.5845 512.947 36.1991V37.1922C512.947 39.7996 510.797 42.6831 508.141 42.6831H504.626C501.308 42.6831 498.617 44.5581 498.617 47.825V88.1475C498.632 89.7275 499.274 91.2369 500.401 92.3441C501.527 93.4513 503.047 94.0657 504.626 94.0525H529.319C530.898 94.0657 532.418 93.4513 533.545 92.3441C534.671 91.2369 535.313 89.7275 535.328 88.1475V47.8403C535.322 47.0575 535.161 46.2836 534.855 45.5629C534.55 44.8422 534.105 44.1889 533.547 43.6401C532.989 43.0914 532.328 42.658 531.603 42.3649C530.877 42.0717 530.101 41.9245 529.319 41.9315ZM516.971 30.4092C517.233 30.4137 517.488 30.4956 517.703 30.6445C517.919 30.7934 518.086 31.0028 518.183 31.2463C518.28 31.4898 518.303 31.7565 518.249 32.0131C518.195 32.2697 518.067 32.5046 517.88 32.6884C517.693 32.8722 517.456 32.9966 517.199 33.0461C516.941 33.0956 516.675 33.068 516.434 32.9666C516.192 32.8653 515.986 32.6948 515.84 32.4765C515.695 32.2582 515.618 32.0019 515.618 31.7397C515.619 31.5635 515.656 31.3893 515.724 31.227C515.793 31.0648 515.893 30.9177 516.019 30.7941C516.144 30.6706 516.293 30.573 516.457 30.5069C516.62 30.4409 516.795 30.4077 516.971 30.4092Z" fill="#F7F3EF" stroke="#070707" stroke-width="2" stroke-linecap="round" stroke-linejoin="round"/>
<path d="M527.533 41.3139H524.023C522.748 41.3139 521.526 40.8074 520.625 39.9056C519.723 39.0039 519.217 37.7809 519.217 36.5056V35.4665C519.218 34.8422 519.339 34.2239 519.573 33.6452C519.684 33.3773 519.82 33.1205 519.98 32.8783C520.216 32.2988 520.337 31.6789 520.336 31.0531V30.3744C520.337 29.7428 520.213 29.1174 519.971 28.5338C519.73 27.9502 519.376 27.4199 518.93 26.9733C518.483 26.5267 517.953 26.1725 517.37 25.9311C516.787 25.6896 516.161 25.5656 515.53 25.5661H514.852C514.221 25.5656 513.595 25.6896 513.012 25.9311C512.429 26.1725 511.899 26.5267 511.452 26.9733C511.006 27.4199 510.652 27.9502 510.411 28.5338C510.169 29.1174 510.045 29.7428 510.046 30.3744V31.0569C510.045 31.6827 510.166 32.3026 510.402 32.8821C510.555 33.1244 510.684 33.3813 510.786 33.649C511.023 34.2269 511.145 34.8456 511.146 35.4703V36.5095C511.145 37.7844 510.638 39.0068 509.737 39.9083C508.836 40.8099 507.614 41.3168 506.34 41.3178H502.826C502.036 41.3173 501.255 41.4725 500.525 41.7744C499.796 42.0764 499.133 42.5192 498.575 43.0776C498.017 43.636 497.575 44.299 497.273 45.0287C496.971 45.7584 496.816 46.5404 496.816 47.3301V88.3581C496.816 89.1477 496.972 89.9295 497.274 90.659C497.576 91.3884 498.018 92.0512 498.576 92.6095C499.134 93.1678 499.797 93.6107 500.526 93.9128C501.255 94.215 502.037 94.3705 502.826 94.3705H527.514C528.304 94.371 529.085 94.2158 529.815 93.9139C530.544 93.612 531.207 93.1692 531.766 92.6108C532.324 92.0525 532.767 91.3895 533.069 90.6599C533.372 89.9301 533.527 89.148 533.527 88.3581V47.3301C533.528 45.7375 532.898 44.2096 531.774 43.0817C530.65 41.9538 529.125 41.318 527.533 41.3139ZM515.189 32.2955C514.921 32.2955 514.658 32.2157 514.435 32.0664C514.212 31.9171 514.038 31.7049 513.935 31.4566C513.833 31.2084 513.806 30.9353 513.859 30.6719C513.911 30.4084 514.041 30.1666 514.231 29.9769C514.421 29.7872 514.663 29.6583 514.927 29.6063C515.19 29.5544 515.463 29.5818 515.711 29.6851C515.959 29.7884 516.17 29.963 516.319 30.1868C516.468 30.4105 516.546 30.6733 516.546 30.9419C516.546 31.12 516.511 31.2963 516.442 31.4608C516.374 31.6252 516.274 31.7746 516.148 31.9004C516.022 32.0261 515.873 32.1257 515.708 32.1935C515.543 32.2613 515.367 32.296 515.189 32.2955Z" fill="#F7F3EF" stroke="#070707" stroke-width="2" stroke-linecap="round" stroke-linejoin="round"/>
<path d="M71.4541 50.2948H82.9859V65.9277C82.9859 67.4531 82.3802 68.916 81.3021 69.9946C80.2241 71.0733 78.7619 71.6792 77.2372 71.6792C75.7126 71.6792 74.2504 71.0733 73.1723 69.9946C72.0943 68.916 71.4886 67.4531 71.4886 65.9277V50.2948H71.4541Z" fill="#F7F3EF" stroke="#070707" stroke-width="2" stroke-linecap="round" stroke-linejoin="round"/>
<path d="M77.2227 71.668V90.0884" stroke="#070707" stroke-width="2" stroke-linecap="round" stroke-linejoin="round"/>
<path d="M83.3159 94.4205L77.2224 90.1835L71.125 94.4205H83.3159Z" fill="#F7F3EF" stroke="#070707" stroke-width="2" stroke-linecap="round" stroke-linejoin="round"/>
<path d="M91.0879 50.2948H102.62V65.9277C102.62 67.4531 102.014 68.916 100.936 69.9946C99.8578 71.0733 98.3956 71.6792 96.871 71.6792C95.3464 71.6792 93.8842 71.0733 92.8061 69.9946C91.728 68.916 91.1224 67.4531 91.1224 65.9277V50.2948H91.0879Z" fill="#F7F3EF" stroke="#070707" stroke-width="2" stroke-linecap="round" stroke-linejoin="round"/>
<path d="M96.8564 71.6679V90.0883" stroke="#070707" stroke-width="2" stroke-linecap="round" stroke-linejoin="round"/>
<path d="M102.95 94.4205L96.8563 90.1835L90.7627 94.4205H102.95Z" fill="#F7F3EF" stroke="#070707" stroke-width="2" stroke-linecap="round" stroke-linejoin="round"/>
<path d="M110.726 50.2948H122.257V65.9277C122.257 67.4531 121.652 68.916 120.574 69.9946C119.496 71.0733 118.033 71.6792 116.509 71.6792C114.984 71.6792 113.522 71.0733 112.444 69.9946C111.366 68.916 110.76 67.4531 110.76 65.9277V50.2948H110.726Z" fill="#F7F3EF" stroke="#070707" stroke-width="2" stroke-linecap="round" stroke-linejoin="round"/>
<path d="M116.49 71.668V90.0884" stroke="#070707" stroke-width="2" stroke-linecap="round" stroke-linejoin="round"/>
<path d="M122.587 94.4205L116.494 90.1835L110.396 94.4205H122.587Z" fill="#F7F3EF" stroke="#070707" stroke-width="2" stroke-linecap="round" stroke-linejoin="round"/>
<path d="M28.2021 121.116H134.376" stroke="#070707" stroke-width="2" stroke-linecap="round" stroke-linejoin="round"/>
<path d="M134.276 104.309H144.164V109.712L134.276 108.044V104.309Z" fill="#F7F3EF" stroke="#070707" stroke-width="2" stroke-linecap="round" stroke-linejoin="round"/>
<path d="M18.3298 104.309H28.2175V109.712L18.3298 108.044V104.309Z" fill="#F7F3EF" stroke="#070707" stroke-width="2" stroke-linecap="round" stroke-linejoin="round"/>
<path d="M157.915 94.4208H4.58301V104.314H157.915V94.4208Z" fill="#F7F3EF" stroke="#070707" stroke-width="2" stroke-linecap="round" stroke-linejoin="round"/>
<path d="M28.2175 104.309H18.3298V121.116H28.2175V104.309Z" fill="#F7F3EF" stroke="#070707" stroke-width="2" stroke-linecap="round" stroke-linejoin="round"/>
<path d="M144.164 104.309H134.276V121.116H144.164V104.309Z" fill="#F7F3EF" stroke="#070707" stroke-width="2" stroke-linecap="round" stroke-linejoin="round"/>
<path d="M19.5752 72.5223H54.4503V76.5408C54.4503 81.1658 52.6139 85.6015 49.3452 88.8719C46.0765 92.1423 41.6431 93.9796 37.0204 93.9796C32.3977 93.9796 27.9644 92.1423 24.6956 88.8719C21.4269 85.6015 19.5905 81.1658 19.5905 76.5408V72.5223H19.5752Z" fill="#E57B07" stroke="#070707" stroke-width="2" stroke-linecap="round" stroke-linejoin="round"/>
<path d="M35.2383 72.5231C35.2383 72.5231 36.641 47.6264 45.0723 35.8739L35.2383 72.5231Z" fill="#F7F3EF"/>
<path d="M35.2383 72.5231C35.2383 72.5231 36.641 47.6264 45.0723 35.8739" stroke="#070707" stroke-width="2" stroke-linecap="round" stroke-linejoin="round"/>
<path d="M38.25 52.6444C38.25 52.6444 39.6565 41.8123 50.1305 41.1796C50.1382 41.1796 51.6175 52.863 38.25 52.6444Z" fill="#20A647" stroke="black" stroke-width="2" stroke-linecap="round" stroke-linejoin="round"/>
<path d="M40.0361 46.0116C40.0361 46.0116 45.9726 34.3512 37.0047 29.8036C37.0239 29.8075 31.7006 40.7393 40.0361 46.0116Z" fill="#20A647" stroke="black" stroke-width="2" stroke-linecap="round" stroke-linejoin="round"/>
<path d="M17.1722 55.0753C17.1722 55.0753 16.6356 42.0039 6.59082 42.4218C6.59082 42.4333 7.32282 54.5654 17.1722 55.0753Z" fill="#20A647" stroke="black" stroke-width="2" stroke-linecap="round" stroke-linejoin="round"/>
<path d="M36.1697 63.696C36.1697 63.696 40.2895 50.4673 31.0687 46.0156C31.0687 46.0117 26.3663 59.1714 36.1697 63.696Z" fill="#20A647" stroke="black" stroke-width="2" stroke-linecap="round" stroke-linejoin="round"/>
<path d="M35.7481 68.872C35.7481 68.872 34.3876 56.6518 45.1069 54.8534C45.1069 54.8534 47.4869 67.1005 35.7481 68.872Z" fill="#20A647" stroke="black" stroke-width="2" stroke-linecap="round" stroke-linejoin="round"/>
<path d="M44.7804 36.2529C44.7804 36.2529 43.4199 24.0365 54.1392 22.2382C54.1392 22.2382 56.5191 34.4661 44.7804 36.2529Z" fill="#20A647" stroke="black" stroke-width="2" stroke-linecap="round" stroke-linejoin="round"/>
<path d="M16.9229 54.8532L29.9416 72.5221" stroke="#070707" stroke-width="2" stroke-linecap="round" stroke-linejoin="round"/>
<path d="M23.1314 63.2665C23.1314 63.2665 17.0493 55.4175 20.4487 46.9013C20.4602 46.9128 27.9487 52.6529 23.1314 63.2665Z" fill="#20A647" stroke="black" stroke-width="2" stroke-linecap="round" stroke-linejoin="round"/>
<path d="M24.1207 64.6235C24.1207 64.6235 16.9234 69.4855 10.1055 60.513C10.1055 60.513 18.303 56.7477 24.1207 64.6235Z" fill="#20A647" stroke="black" stroke-width="2" stroke-linecap="round" stroke-linejoin="round"/>
<path d="M29.9425 72.4686C29.9425 72.4686 24.2245 77.8675 16.8164 70.8543C16.8164 70.8582 23.5845 66.2722 29.9425 72.4686Z" fill="#20A647" stroke="black" stroke-width="2" stroke-linecap="round" stroke-linejoin="round"/>
<path d="M29.9415 72.5229C29.9415 72.5229 24.6259 66.4531 28.4086 60.2528C28.4162 60.2605 34.4983 66.3342 29.9415 72.5229Z" fill="#20A647" stroke="black" stroke-width="2" stroke-linecap="round" stroke-linejoin="round"/>
<path d="M45.0723 72.5077C45.0723 72.5077 46.6052 63.5467 54.6878 62.4501C54.7032 62.4501 56.0752 72.5077 45.0723 72.5077Z" fill="#20A647" stroke="black" stroke-width="2" stroke-linecap="round" stroke-linejoin="round"/>
<path d="M78.6679 137.593H77.3955V173.356H78.6679V137.593Z" fill="#F7F3EF" stroke="#070707" stroke-width="2" stroke-linecap="round" stroke-linejoin="round"/>
<path d="M82.6538 190.529H73.4099C73.0731 190.522 72.7416 190.443 72.438 190.296C72.1345 190.15 71.8659 189.94 71.6504 189.681C71.4349 189.422 71.2776 189.119 71.1891 188.794C71.1006 188.468 71.0829 188.128 71.1373 187.795L71.8042 174.981C71.8769 174.427 72.1467 173.918 72.5641 173.546C72.9814 173.175 73.5185 172.967 74.0768 172.96H81.9831C82.5419 172.967 83.0794 173.175 83.4974 173.546C83.9154 173.917 84.1859 174.426 84.2596 174.981L84.9302 187.795C84.9847 188.128 84.9669 188.469 84.8782 188.795C84.7894 189.12 84.6318 189.423 84.4159 189.682C84.2 189.941 83.9309 190.151 83.6269 190.297C83.3229 190.443 82.991 190.523 82.6538 190.529Z" fill="#F7F3EF" stroke="#070707" stroke-width="2" stroke-linecap="round" stroke-linejoin="round"/>
<path d="M78.032 176.572V187.462" stroke="#070707" stroke-width="2" stroke-linecap="round" stroke-linejoin="round"/>
<path d="M80.8604 177.481V186.557" stroke="#070707" stroke-width="2" stroke-linecap="round" stroke-linejoin="round"/>
<path d="M75.2031 177.481V186.557" stroke="#070707" stroke-width="2" stroke-linecap="round" stroke-linejoin="round"/>
<path d="M79.7026 122.19L79.1392 136.99C79.1254 137.274 79.0024 137.542 78.7959 137.737C78.5895 137.932 78.3156 138.039 78.0316 138.037C77.7481 138.037 77.4755 137.928 77.2711 137.731C77.0668 137.534 76.9465 137.266 76.9356 136.983L76.376 123.689C76.376 123.251 76.2899 122.818 76.1225 122.414C75.9552 122.009 75.7098 121.642 75.4006 121.333C75.0913 121.023 74.7242 120.778 74.3201 120.61C73.9161 120.443 73.483 120.357 73.0457 120.357C73.0567 119.957 73.2235 119.577 73.5107 119.298C73.7978 119.019 74.1824 118.864 74.5825 118.865H76.3952C77.2732 118.871 78.1132 119.224 78.7326 119.847C79.352 120.469 79.7006 121.311 79.7026 122.19Z" fill="#F7F3EF" stroke="#070707" stroke-width="2" stroke-linecap="round" stroke-linejoin="round"/>
<path d="M38.2587 137.593H36.9863V174.932H38.2587V137.593Z" fill="#F7F3EF" stroke="#070707" stroke-width="2" stroke-linecap="round" stroke-linejoin="round"/>
<path d="M22.9482 185.967C26.0755 190.449 31.8778 191.465 36.2199 188.229C40.5621 184.997 40.907 178.739 37.7759 174.253L22.9482 185.967Z" fill="#F7F3EF" stroke="#070707" stroke-width="2" stroke-linecap="round" stroke-linejoin="round"/>
<path d="M39.2479 122.189L38.6845 136.99C38.6736 137.275 38.5529 137.544 38.3478 137.741C38.1427 137.939 37.8692 138.049 37.5846 138.048C37.3007 138.049 37.0277 137.939 36.8227 137.743C36.6177 137.546 36.4966 137.278 36.4847 136.994L35.9252 123.7C35.9252 122.817 35.5748 121.97 34.9511 121.345C34.3273 120.721 33.4812 120.369 32.5986 120.368C32.5986 119.967 32.7577 119.583 33.0409 119.3C33.3241 119.016 33.7081 118.857 34.1086 118.857H35.9175C36.8008 118.857 37.6479 119.208 38.2724 119.833C38.897 120.458 39.2479 121.306 39.2479 122.189Z" fill="#F7F3EF" stroke="#070707" stroke-width="2" stroke-linecap="round" stroke-linejoin="round"/>
<path d="M100.406 137.593H99.1338V173.356H100.406V137.593Z" fill="#F7F3EF" stroke="#070707" stroke-width="2" stroke-linecap="round" stroke-linejoin="round"/>
<path d="M104.437 177.865L103.671 190.718H103.521L102.372 178.758C102.312 178.102 102.013 177.49 101.532 177.04C101.062 176.598 100.442 176.351 99.7962 176.35C99.1482 176.359 98.5264 176.607 98.0508 177.048C97.5752 177.488 97.2795 178.089 97.2208 178.735L95.9983 190.718H95.9485L95.182 177.865C95.1625 176.619 95.6379 175.417 96.5038 174.522C97.3697 173.627 98.5552 173.112 99.8 173.091C100.411 173.092 101.015 173.215 101.577 173.455C102.139 173.695 102.646 174.046 103.069 174.487C103.945 175.393 104.436 176.604 104.437 177.865Z" fill="#F7F3EF" stroke="#070707" stroke-width="2" stroke-linecap="round" stroke-linejoin="round"/>
<path d="M101.44 122.189L100.877 136.99C100.866 137.275 100.745 137.544 100.54 137.741C100.335 137.939 100.062 138.049 99.7771 138.048C99.4935 138.049 99.221 137.939 99.0166 137.742C98.8122 137.546 98.6919 137.278 98.681 136.994L98.1215 123.7C98.1215 122.817 97.7711 121.97 97.1474 121.345C96.5236 120.721 95.6775 120.369 94.7949 120.368C94.7949 119.968 94.9535 119.584 95.2358 119.301C95.5182 119.018 95.9013 118.858 96.3011 118.857H98.1138C98.9964 118.858 99.8425 119.21 100.466 119.835C101.09 120.459 101.44 121.306 101.44 122.189Z" fill="#F7F3EF" stroke="#070707" stroke-width="2" stroke-linecap="round" stroke-linejoin="round"/>
<path d="M57.9501 137.593H56.6777V165.802H57.9501V137.593Z" fill="#F7F3EF" stroke="#070707" stroke-width="2" stroke-linecap="round" stroke-linejoin="round"/>
<path d="M63.3267 181.082C63.7099 187.025 61.0043 190.714 57.3175 190.714C54.0446 190.714 50.8368 186.473 51.3044 181.082C51.7643 175.783 54.8302 165.407 57.3175 165.407C59.8047 165.407 62.9856 175.772 63.3267 181.082Z" fill="#F7F3EF" stroke="#070707" stroke-width="2" stroke-linecap="round" stroke-linejoin="round"/>
<path d="M61.0691 181.554C61.3067 187.206 59.0609 190.715 57.3133 190.715C55.9068 190.715 53.2701 186.681 53.5613 181.554C53.8488 176.512 55.7612 165.749 57.3133 165.749C58.8654 165.749 60.8544 176.504 61.0691 181.554Z" fill="#F7F3EF" stroke="#070707" stroke-width="2" stroke-linecap="round" stroke-linejoin="round"/>
<path d="M58.7198 122.19L58.1565 136.99C58.1455 137.275 58.0249 137.544 57.8198 137.741C57.6147 137.939 57.3411 138.049 57.0565 138.049C56.7726 138.049 56.4996 137.939 56.2946 137.743C56.0896 137.546 55.9685 137.278 55.9566 136.994L55.3971 123.7C55.3976 123.263 55.3119 122.83 55.145 122.426C54.978 122.021 54.7331 121.654 54.4241 121.344C54.1152 121.035 53.7483 120.789 53.3445 120.622C52.9406 120.454 52.5077 120.368 52.0706 120.368C52.0785 119.971 52.2403 119.592 52.522 119.312C52.8037 119.031 53.1832 118.871 53.5805 118.865H55.3933C56.2745 118.866 57.1195 119.217 57.743 119.84C58.3665 120.463 58.7178 121.308 58.7198 122.19Z" fill="#F7F3EF" stroke="#070707" stroke-width="2" stroke-linecap="round" stroke-linejoin="round"/>
<path d="M57.3135 165.749V190.715" stroke="#070707" stroke-width="2" stroke-linecap="round" stroke-linejoin="round"/>
<path d="M145.558 133.713C145.085 133.178 144.457 132.804 143.761 132.643L132.379 130.212L129.918 127.528L114.32 141.83L128.293 157.084C133.03 162.256 140.346 163.537 144.715 159.787C147.015 157.808 148.073 154.867 147.904 151.735C147.664 148.437 146.297 145.323 144.033 142.915L141.787 140.465C141.201 139.821 141.331 138.889 142.044 138.682L145.298 137.728C145.518 137.648 145.72 137.526 145.892 137.367C146.773 136.585 146.689 134.944 145.558 133.713Z" fill="#F7F3EF" stroke="#070707" stroke-width="2" stroke-linecap="round" stroke-linejoin="round"/>
<path d="M144.149 134.452C143.676 133.917 143.048 133.543 142.352 133.382L130.969 130.951L128.509 128.267L112.907 142.57L126.88 157.823C131.617 162.995 138.933 164.276 143.306 160.507C145.606 158.528 146.659 155.587 146.491 152.455C146.251 149.157 144.885 146.043 142.62 143.636L140.378 141.185C139.788 140.541 139.918 139.609 140.631 139.402L143.885 138.444C144.105 138.367 144.308 138.246 144.479 138.087C145.364 137.324 145.28 135.683 144.149 134.452Z" fill="#E57B07" stroke="#070707" stroke-width="2" stroke-linecap="round" stroke-linejoin="round"/>
<path d="M125.439 122.071C125.481 122.968 127.233 125.714 127.233 125.714C127.233 125.714 128.731 122.826 128.693 121.925C128.666 121.499 128.473 121.101 128.155 120.816C127.837 120.531 127.421 120.382 126.994 120.401C126.568 120.42 126.166 120.606 125.876 120.918C125.585 121.23 125.428 121.644 125.439 122.071Z" fill="#F7F3EF" stroke="#070707" stroke-width="2" stroke-linecap="round" stroke-linejoin="round"/>
<path d="M126.883 126.15L110.657 141.028C110.59 141.089 110.535 141.164 110.497 141.246C110.458 141.329 110.436 141.419 110.432 141.51C110.428 141.601 110.442 141.692 110.474 141.778C110.505 141.863 110.553 141.942 110.615 142.009L111.764 143.263C111.826 143.331 111.9 143.385 111.983 143.424C112.066 143.462 112.155 143.484 112.246 143.488C112.337 143.492 112.428 143.478 112.514 143.446C112.6 143.415 112.678 143.367 112.746 143.305L129.003 128.428C129.139 128.303 129.22 128.129 129.228 127.944C129.235 127.759 129.17 127.579 129.045 127.443L127.895 126.192C127.833 126.121 127.756 126.064 127.671 126.023C127.585 125.982 127.493 125.959 127.398 125.955C127.304 125.952 127.209 125.967 127.121 126C127.032 126.034 126.952 126.085 126.883 126.15Z" fill="#E57B07" stroke="#070707" stroke-width="2" stroke-linecap="round" stroke-linejoin="round"/>
<path d="M206.529 3.4843H150.438V59.6045H206.529V3.4843Z" fill="#1C0E0C"/>
<path d="M204.042 0.999924H147.95V57.1201H204.042V0.999924Z" fill="#F7F3EF" stroke="#070707" stroke-width="2" stroke-linecap="round" stroke-linejoin="round"/>
<path d="M195.108 9.93742H156.884V48.1817H195.108V9.93742Z" fill="#F7F3EF" stroke="#070707" stroke-width="2" stroke-linecap="round" stroke-linejoin="round"/>
<path d="M176.203 20.5096C176.203 20.5096 177.253 17.0279 174.808 15.9697L176.203 20.5096Z" fill="#F7F3EF"/>
<path d="M176.203 20.5096C176.203 20.5096 177.253 17.0279 174.808 15.9697" stroke="#070707" stroke-width="2" stroke-linecap="round" stroke-linejoin="round"/>
<path d="M181.38 25.9767C181.603 27.2855 182.095 28.5338 182.825 29.6424C183.647 30.8749 184.12 32.3068 184.194 33.7863C184.268 35.2658 183.941 36.738 183.248 38.0467C182.554 39.3555 181.519 40.4522 180.254 41.2207C178.988 41.9891 177.538 42.4008 176.057 42.4119C174.576 42.4231 173.12 42.0334 171.843 41.2841C170.566 40.5348 169.515 39.4538 168.802 38.1557C168.088 36.8575 167.739 35.3905 167.791 33.91C167.843 32.4295 168.295 30.9907 169.097 29.7459C169.857 28.6059 170.379 27.3237 170.63 25.9767L170.68 25.6891C170.741 25.3478 170.776 25.0027 170.807 24.6538C170.915 23.4804 171.457 22.3897 172.326 21.5952C173.196 20.8008 174.331 20.3601 175.509 20.3593H176.517C177.695 20.3592 178.83 20.7997 179.7 21.5943C180.571 22.3888 181.112 23.4801 181.219 24.6538C181.25 25.0027 181.285 25.3478 181.346 25.6891L181.38 25.9767Z" fill="#20A647" stroke="black" stroke-width="2" stroke-linecap="round" stroke-linejoin="round"/>
<path d="M176.652 20.3213C176.652 20.3213 176.395 17.1311 180.979 15.6894C180.979 15.6932 181.615 21.4295 176.652 20.3213Z" fill="#F7F3EF" stroke="#070707" stroke-width="2" stroke-linecap="round" stroke-linejoin="round"/>
</svg>
