<svg width="21" height="21" viewBox="0 0 21 21" fill="none" xmlns="http://www.w3.org/2000/svg">
<path d="M9.8457 2.50391L9.23438 2.53711L8.625 2.61328L8.02149 2.73438L7.43164 2.89844L6.85352 3.10547L6.29297 3.35352L5.74805 3.64062L5.23047 3.9668L4.73438 4.33008L4.26563 4.72656L3.82813 5.15625L3.42383 5.61719L3.05273 6.10547L2.7168 6.62109L2.41797 7.15625L2.16211 7.71484L1.94336 8.28711L1.76953 8.875L1.63867 9.47656L1.54883 10.084L1.50586 10.6953V11.3105L1.54883 11.9199L1.63867 12.5273L1.76953 13.1289L1.94336 13.7148L2.16211 14.2891L2.41797 14.8477L2.7168 15.3828L3.05273 15.8984L3.42383 16.3867L3.82813 16.8477L4.26563 17.2773L4.73438 17.6738L5.23047 18.0371L5.74805 18.3633L6.29297 18.6504L6.85352 18.8965L7.43164 19.1055L8.02149 19.2676L8.625 19.3906L9.23438 19.4668L9.8457 19.5L10.4609 19.4902L11.0723 19.4355L11.6758 19.334L12.2734 19.1914L12.8574 19.0078L13.4277 18.7793L13.9805 18.5117L14.5117 18.2051L15.0215 17.8594L15.502 17.4785L15.9551 17.0664L16.377 16.6191L16.7656 16.1445L17.1191 15.6445L17.4375 15.1191L17.7129 14.5703L17.9512 14.0039L18.1465 13.4238L18.3008 12.8281L18.4102 12.2266L18.4766 11.6152L18.5 11.002L18.4766 10.3887L18.4102 9.77734L18.3008 9.17578L18.1465 8.58008L17.9512 8L17.7129 7.43359L17.4375 6.88477L17.1191 6.35938L16.7656 5.85938L16.377 5.38281L15.9551 4.9375L15.502 4.52344L15.0215 4.14453L14.5117 3.79883L13.9805 3.49219L13.4277 3.22461L12.8574 2.99805L12.2734 2.8125L11.6758 2.66992L11.0723 2.57031L10.4609 2.51367L9.8457 2.50391ZM10.1445 3.50391L10.7246 3.53711L11.3008 3.61719L11.8691 3.73828L12.4277 3.90625L12.9688 4.11523L13.4961 4.36523L13.998 4.65625L14.4785 4.98633L14.9316 5.35156L15.3535 5.75L15.7441 6.18164L16.0996 6.64062L16.4199 7.125L16.7012 7.63477L16.9414 8.16406L17.1406 8.71289L17.2988 9.27344L17.4102 9.84375L17.4766 10.4219L17.5 11.002L17.4766 11.582L17.4102 12.1602L17.2988 12.7305L17.1406 13.291L16.9414 13.8379L16.7012 14.3672L16.4199 14.877L16.0996 15.3633L15.7441 15.8242L15.3535 16.2539L14.9316 16.6523L14.4785 17.0176L13.998 17.3477L13.4961 17.6387L12.9688 17.8887L12.4277 18.0977L11.8691 18.2656L11.3008 18.3887L10.7246 18.4668L10.1445 18.5L9.56445 18.4902L8.98438 18.4316L8.41211 18.3301L7.84961 18.1855L7.29883 17.998L6.76367 17.7676L6.25 17.498L5.75781 17.1855L5.29102 16.8398L4.85352 16.457L4.44531 16.041L4.07227 15.5957L3.73438 15.123L3.43359 14.625L3.17188 14.1055L2.95313 13.5664L2.77539 13.0117L2.64063 12.4453L2.55078 11.8711L2.50586 11.293V10.7109L2.55078 10.1309L2.64063 9.55664L2.77539 8.99219L2.95313 8.4375L3.17188 7.89844L3.43359 7.37891L3.73438 6.88086L4.07227 6.40625L4.44531 5.96289L4.85352 5.54688L5.29102 5.16406L5.75781 4.81641L6.25 4.50586L6.76367 4.23633L7.29883 4.00586L7.84961 3.81836L8.41211 3.67188L8.98438 3.57227L9.56445 3.51367L10.1445 3.50391ZM10 6.50195C7.51472 6.50195 5.5 8.51667 5.5 11.002C5.5 13.4872 7.51472 15.502 10 15.502C11.0113 15.5 11.9924 15.1573 12.7852 14.5293L12.168 13.75C11.5503 14.2372 10.7866 14.502 10 14.502C8.067 14.502 6.5 12.9349 6.5 11.002C6.5 9.06896 8.067 7.50195 10 7.50195C10.7864 7.50341 11.5494 7.76967 12.166 8.25781L12.7891 7.4707C11.9948 6.84331 11.0122 6.50201 10 6.50195Z" fill="#151515"/>
</svg>
