<svg width="201" height="30" viewBox="0 0 201 30" fill="none" xmlns="http://www.w3.org/2000/svg">
<path d="M28.2322 14.8932C28.2322 7.17902 34.5835 0.94043 42.5248 0.94043C50.5215 0.94043 56.8746 7.18249 56.8746 14.8932C56.8746 22.5501 50.5215 28.9031 42.5248 28.9031C34.5835 28.9031 28.2322 22.5432 28.2322 14.8932ZM50.0118 14.8932C50.0118 11.037 46.6653 7.63331 42.5248 7.63331C38.4414 7.63331 35.095 11.037 35.095 14.8932C35.095 18.8066 38.4414 22.2103 42.5248 22.2103C46.6723 22.2103 50.0118 18.8066 50.0118 14.8932Z" fill="#0056D2"/>
<path d="M172.361 15.1203C172.361 6.66926 179.224 0.94043 185.464 0.94043C189.718 0.94043 192.157 2.24433 193.801 4.74115L194.455 1.44673H200.834V28.3916H194.455L193.631 25.6174C191.76 27.6599 189.433 28.9118 185.464 28.9118C179.339 28.9031 172.361 23.5142 172.361 15.1203ZM194.141 15.0631C194.133 13.0857 193.341 11.1923 191.937 9.79943C190.533 8.40656 188.634 7.62832 186.657 7.63591C184.679 7.64349 182.786 8.43629 181.393 9.83989C180 11.2435 179.222 13.1429 179.229 15.1203C179.229 18.8638 182.576 22.2103 186.661 22.2103C190.796 22.2103 194.141 18.8638 194.141 15.0631Z" fill="#0056D2"/>
<path d="M164.522 4.56993V1.4489H157.547V28.3921H164.522V13.8741C164.522 9.50637 166.679 7.23842 170.418 7.23842C170.666 7.23842 170.901 7.25576 171.132 7.2783L172.425 0.774414C168.789 0.793487 166.154 2.04017 164.522 4.56993Z" fill="#0056D2"/>
<path d="M94.4264 4.57121V1.45018L87.4509 1.46579L87.5099 28.4055L94.4854 28.3899L94.4472 13.8736C94.4368 9.50764 96.5886 7.23449 100.33 7.22582C100.569 7.22652 100.808 7.23983 101.045 7.2657L102.331 0.754883C98.6901 0.784359 96.0511 2.03624 94.4264 4.57121Z" fill="#0056D2"/>
<path d="M59.2908 17.9552V1.4502H66.2645V17.1056C66.2645 20.5648 68.1926 22.6073 71.5391 22.6073C75.2826 22.6073 77.4344 20.3376 77.4344 15.9699V1.4502H84.4116V28.3916H77.4396V25.2706C75.7958 27.8229 73.1291 29.0713 69.4428 29.0713C63.2042 29.0731 59.2908 24.5354 59.2908 17.9552Z" fill="#0056D2"/>
<path d="M127.217 14.9244C127.232 7.38018 132.632 0.924853 141.195 0.940458C149.137 0.956063 154.739 7.31776 154.72 14.8117C154.721 15.5526 154.663 16.2925 154.546 17.0242L134.015 16.986C134.802 20.2198 137.464 22.5501 141.492 22.5588C143.93 22.5588 146.541 21.6606 148.133 19.6216L152.891 23.4362C150.444 26.8918 146.128 28.9257 141.537 28.917C133.431 28.8893 127.203 22.8085 127.217 14.9244ZM147.697 12.1259C147.306 9.40365 144.474 7.29869 141.128 7.29349C137.894 7.29349 135.283 9.21119 134.256 12.1016L147.697 12.1259Z" fill="#0056D2"/>
<path d="M102.373 22.5187L108.573 19.2728C109.598 21.4939 111.647 22.803 114.552 22.803C117.227 22.803 118.252 21.95 118.252 20.7536C118.252 16.4188 103.564 19.0457 103.564 9.13638C103.564 3.67111 108.346 0.768555 114.266 0.768555C118.763 0.768555 122.748 2.76081 124.912 6.46097L118.767 9.71204C117.857 7.88971 116.149 6.86497 113.985 6.86497C111.88 6.86497 110.853 7.60535 110.853 8.85723C110.853 13.0706 125.541 10.3952 125.541 20.4744C125.541 25.7125 121.272 28.8994 114.384 28.8994C108.52 28.8942 104.421 26.9592 102.373 22.5187Z" fill="#0056D2"/>
<path d="M0.532959 14.8931C0.532959 7.12349 6.88426 0.883166 14.8256 0.883166C17.2133 0.86643 19.5676 1.44407 21.6765 2.56402C23.7853 3.68398 25.5824 5.31105 26.9057 7.29862L20.9514 10.7526C20.2625 9.76805 19.3455 8.96492 18.2787 8.41177C17.212 7.85862 16.0272 7.57188 14.8256 7.57604C10.7422 7.57604 7.39576 10.9797 7.39576 14.8931C7.39576 18.8066 10.7422 22.2102 14.8256 22.2102C16.0838 22.2184 17.3232 21.9039 18.4254 21.2968C19.5276 20.6897 20.4558 19.8103 21.1214 18.7424L27.0166 22.2588C25.7095 24.3045 23.9057 25.986 21.7734 27.1465C19.6411 28.3071 17.2497 28.909 14.8221 28.8962C6.88426 28.9031 0.532959 22.5431 0.532959 14.8931Z" fill="#0056D2"/>
</svg>
